<svg xmlns="http://www.w3.org/2000/svg" viewBox="0 0 19 19"><style>*{fill:#336;}</style><path d="M7.27 18.06a1 1 0 0 1-1-.75c-.11-.15-.41-.46-.66-.72C4.37 15.28 2 12.84 2 9.5c0-3.16 2.05-5.29 3.41-6.7a8.5 8.5 0 0 0 .86-1 1 1 0 0 1 2 .12c0 .77-.59 1.39-1.42 2.24C5.65 5.43 4 7.14 4 9.5c0 2.5 1.85 4.44 3.08 5.7.74.77 1.19 1.23 1.19 1.86a1 1 0 0 1-1 1zm-.94-.7zm-.06-.3zm0-15.27z"/><polygon points="6.98 10.5 14.17 10.5 10.98 13.69 12.4 15.1 16.59 10.91 18 9.5 16.59 8.09 12.4 3.9 10.98 5.31 14.17 8.5 6.98 8.5 6.98 10.5"/></svg>