<svg xmlns="http://www.w3.org/2000/svg" viewBox="0 0 19 19"><style>*{fill:#003;}</style><path d="M17.59 11 15.7 9.91v-.82L17.59 8a1.63 1.63 0 0 0 .59-2.23l-1.11-1.93a1.63 1.63 0 0 0-2.23-.59L13 4.33a7.38 7.38 0 0 0-.72-.41V1.75A1.64 1.64 0 0 0 10.61.12H8.39a1.64 1.64 0 0 0-1.64 1.63v2.17a7.38 7.38 0 0 0-.75.41L4.16 3.25a1.63 1.63 0 0 0-2.23.59L.82 5.77A1.63 1.63 0 0 0 1.41 8L3.3 9.09v.82L1.41 11a1.63 1.63 0 0 0-.59 2.23l1.11 1.93a1.63 1.63 0 0 0 2.23.59L6 14.67a7.38 7.38 0 0 0 .72.41v2.17a1.64 1.64 0 0 0 1.64 1.63h2.22a1.64 1.64 0 0 0 1.64-1.63v-2.17a7.38 7.38 0 0 0 .72-.41l1.87 1.08a1.63 1.63 0 0 0 2.23-.59l1.11-1.93a1.63 1.63 0 0 0-.56-2.23zM9.5 12.67a3.17 3.17 0 1 1 3.17-3.17 3.16 3.16 0 0 1-3.17 3.17z"/></svg>