<svg xmlns="http://www.w3.org/2000/svg" viewBox="0 0 19 19"><style>rect{fill:rgb(40,110,224);}path{fill:rgb(255,255,255);}</style><rect width="19" height="19" class="a"/><path d="M-9.5 0C-4.257 0 0 4.257 0 9.5S-4.257 19-9.5 19-19 14.743-19 9.5-14.743 0-9.5 0zm-.684 18.098c-.547 0-1.012-.18-1.396-.538-.386-.359-.577-.812-.577-1.358 0-.53.191-.979.577-1.346a1.946 1.946 0 0 1 1.396-.551c.547 0 1.008.184 1.384.551.375.367.563.816.563 1.346 0 .546-.188.999-.563 1.358-.376.358-.837.538-1.384.538zm-2.79-12.693c.122-.122.263-.225.423-.309.16-.083.346-.125.56-.125.899 0 1.349.426 1.349 1.279 0 .519-.206.949-.618 1.292-.411.343-.914.514-1.509.514-.776 0-1.405-.243-1.885-.731-.481-.488-.72-1.12-.72-1.897 0-1.28.572-2.37 1.714-3.269 1.113-.837 2.538-1.257 4.275-1.257 1.706 0 3.077.404 4.114 1.212 1.097.822 1.646 1.904 1.646 3.245 0 1.692-.839 2.964-2.515 3.817a56.298 56.298 0 0 1-1.051.457c-.778.32-1.307.629-1.589.926-.282.297-.423.689-.423 1.177 0 .427-.053.747-.16.96a.689.689 0 0 1-.388.388 1.64 1.64 0 0 1-.64.115c-.854 0-1.28-.48-1.28-1.44 0-.777.198-1.44.594-1.989.473-.624 1.318-1.272 2.538-1.943.99-.548 1.629-.99 1.919-1.325.258-.289.389-.693.389-1.212 0-.731-.294-1.31-.881-1.736-.586-.427-1.367-.641-2.342-.641-1.005 0-1.86.252-2.56.755-.64.442-.96.983-.96 1.622v.115zm26.327-4.06L5.33 9.375l4.295 4.3 8.023-8.03zM4.525 10.181l4.295 4.3-5.468 1.174 1.173-5.474z"/></svg>