<svg xmlns="http://www.w3.org/2000/svg" viewBox="0 0 0 0"><defs><symbol id="home-icon" viewBox="0 0 80 40"><path d="M44.754 33.572h3.737V18.697h2.977L39.999 7.266 28.532 18.697h3.028l-.052 14.875h3.737v-8.5h9.509v8.5Zm6.922 3.187H41.569v-8.5H38.43v8.5H28.323V21.884h-7.478L39.999 2.759l19.156 19.125h-7.479v14.875Z"/></symbol><symbol id="shortcuts-icon" viewBox="0 0 80 40"><path d="M54.986 7.316 52.673 5 28.286 29.409V12.072h-3.272V35H47.92v-3.275H30.601L54.986 7.316Z"/></symbol><symbol id="logout-icon" viewBox="0 0 80 40"><polygon points="13.32 19 13.32 22 44.94 22 33.71 33.23 35.83 35.35 50.68 20.5 35.83 5.65 33.71 7.77 44.94 19 13.32 19"/><polygon points="64 34 49 34 49 32 62 32 62 10 49 10 49 8 64 8 64 34"/></symbol><symbol id="hotlist-icon" viewBox="0 0 80 40"><path d="M51.64 25.52c0-.46-.09-.87-.11-1.19-.2-2.6-1-8.32-4.3-9.37h-.07a8 8 0 0 0-1.71-1.64 6.1 6.1 0 1 0-11.28-2.13 1.5 1.5 0 0 0-.47.16c-4.56 2.53-3.78 14.09-2.7 16.17.57 1.08 3.62 5.94 12.1 5.94h.53a5.28 5.28 0 0 0 3.88 2h.52a3.64 3.64 0 0 0 3-1.29c1.2-1.48.97-4.8.61-8.65ZM40.19 7.15a3.09 3.09 0 1 1-3.09 3.09 3.09 3.09 0 0 1 3.09-3.09ZM43 22.41v8.03c-6.7 0-9-3.53-9.39-4.32C32.9 24.54 32.85 15.65 35 14h.38a6.05 6.05 0 0 0 7.91 1.46c.22.13.47.3.6.4-1.16 1.45-1.1 4.02-.89 6.55Zm5.7 9.95a.8.8 0 0 1-.62.14 3.34 3.34 0 0 1-1.81-.55 27.62 27.62 0 0 1-.2-5v-3.89c0-.22 0-.5-.05-.81-.22-3 0-4.07.22-4.41.91.11 2 2.67 2.35 6.76 0 .34.07.77.12 1.26.08 1.36.5 5.65-.04 6.5Z"/><polygon points="22.08 29.55 12.54 20 22.08 10.45 24.2 12.57 16.78 20 24.2 27.43 22.08 29.55"/><polygon points="59.39 10.45 68.94 20 59.39 29.55 57.27 27.43 64.7 20 57.27 12.57 59.39 10.45"/></symbol><symbol id="hotlist-vc-icon" viewBox="0 0 30 30"><polygon points="1 29 1 1 8.48 1 8.48 4.82 4.82 4.82 4.82 25.18 8.48 25.18 8.48 29 1 29"/><polygon points="29 1 29 29 21.52 29 21.52 25.18 25.18 25.18 25.18 4.82 21.52 4.82 21.52 1 29 1"/><polygon points="21.02 10.79 15 21.21 8.98 10.79 21.02 10.79"/></symbol><symbol id="quicklook-icon" viewBox="0 0 30 30"><path d="M15 4.83c8.28 0 15 4.55 15 10.17a15 15 0 0 0-30 0C0 9.39 6.72 4.83 15 4.83ZM15 25.17C6.72 25.17 0 20.61 0 15a15 15 0 1 0 30 0c0 5.61-6.72 10.17-15 10.17Z"/><circle cx="15" cy="15" r="6"/></symbol><symbol id="warning-icon" viewBox="0 0 30 30"><path d="m15 13.66 4.43 7.84h-8.86L15 13.66M15 3.5l-13 23h26l-13-23Z"/></symbol><symbol id="patient-icon" viewBox="0 0 60 60"><path d="M52.14 41.32v-.18c-.08-.85-.16-1.6-.2-2.2C51.56 34 50 22.52 43.51 21.12a13.79 13.79 0 0 0-4.15-3.72 11 11 0 0 0 2-6.29 11.1 11.1 0 0 0-22.2 0 10.91 10.91 0 0 0 .27 2.42 5 5 0 0 0-2.14-.64c-6.87-.36-9 10.75-9.56 15.54-.07.56-.17 1.26-.29 2.06-.91 6.26-1.58 12.08.24 14.65 1.09 1.54 3 2.34 5.47 2.24a10.89 10.89 0 0 0 1.45-.19C17.32 50.58 23.6 56 36 56c.53 0 1.19 0 1.8-.05l.12.25c1.14 2.17 4.43 3.55 7.1 3.79h.94a6.35 6.35 0 0 0 5.16-2.19c2.17-2.74 1.72-9.36 1.02-16.48Zm-15.29-6.26c0 .55.08 1 .09 1.43.1 2.18.07 4.83 0 7.41 0 3.21 0 5.86.08 7.91-15.08.32-20-8-20.48-9-1.54-2.91-2-21.64 3.1-25.11.45-.09.94-.17 1.47-.23a11.07 11.07 0 0 0 15.16 2.87A12.83 12.83 0 0 1 39 22.16l-.3.3c-2.35 2.54-2.2 7.61-1.85 12.6ZM30.23 4.11a7 7 0 1 1-7 7 7 7 0 0 1 7-7Zm10.82 32.2c0-.43-.06-1-.1-1.58-.17-2.4-.58-8 .77-9.48a.5.5 0 0 1 .44-.18c2.7 0 5 5.83 5.65 14.17.05.67.13 1.51.23 2.46.29 2.94 1.16 11.88-.15 13.55a3 3 0 0 1-2.5.59 5.85 5.85 0 0 1-3.83-1.61c-.55-1-.49-6.83-.46-10.31.03-2.59.06-5.3-.04-7.61Zm-28.62 6.95a1.9 1.9 0 0 1-1.43-.51c-1-1.44.1-9.13.47-11.68v-.13a46.78 46.78 0 0 0 .96 12.32Z"/></symbol><symbol id="trials-icon" viewBox="0 0 60 60"><circle cx="7" cy="7" r="7"/><circle cx="53.1" cy="7" r="7"/><circle cx="30" cy="7" r="7"/><circle cx="7" cy="41" r="7"/><circle cx="53.1" cy="41" r="7"/><circle cx="7" cy="24" r="7"/><circle cx="53.1" cy="24" r="7"/><circle cx="30" cy="24" r="7"/><path d="M36.88 52a10.62 10.62 0 1 0-13.76 0c-6.45 2.09-10.77 7.11-10.77 13.27a2.19 2.19 0 0 0 4.39 0c0-5.67 5.7-9.94 13.27-9.94s13.27 4.27 13.27 9.94a2.19 2.19 0 0 0 4.39 0C47.66 59.12 43.33 54.1 36.88 52ZM30 37.7a6.24 6.24 0 1 1-6.24 6.24A6.24 6.24 0 0 1 30 37.7Z"/></symbol><symbol id="charts-icon" viewBox="0 0 19 19"><rect width="19" height="1.5" y="17.5"/><polygon points="0.65 19.37 -0.65 18.63 6.84 5.39 11 9.27 18.4 -0.45 19.6 0.45 11.19 11.5 7.21 7.78 0.65 19.37"/><circle cx="17.28" cy="5.08" r=".75"/><circle cx="14.17" cy="7.85" r=".75"/><circle cx="17.28" cy="7.85" r=".75"/><circle cx="7.94" cy="10.62" r=".75"/><circle cx="14.17" cy="10.62" r=".75"/><circle cx="17.28" cy="10.62" r=".75"/><circle cx="4.83" cy="13.38" r=".75"/><circle cx="7.94" cy="13.38" r=".75"/><circle cx="11.06" cy="13.38" r=".75"/><circle cx="14.17" cy="13.38" r=".75"/><circle cx="17.28" cy="13.38" r=".75"/><circle cx="4.83" cy="16.15" r=".75"/><circle cx="7.94" cy="16.15" r=".75"/><circle cx="11.06" cy="16.15" r=".75"/><circle cx="14.17" cy="16.15" r=".75"/><circle cx="17.28" cy="16.15" r=".75"/></symbol><symbol id="clinic-icon" viewBox="0 0 80 40"><path d="M53.34 27.23a3.7 3.7 0 0 0-.66-.38 4.64 4.64 0 1 0-8.74.07 4 4 0 0 0-.49.3 6.07 6.07 0 0 0-1.88 3.48 13.12 13.12 0 0 0-.3 4.1c.17 1.63.74 2.68 1.7 3.1a17 17 0 0 0 5.23.6c.7 0 4.25 0 5.58-.59.86-.36 1.36-1.24 1.53-2.69.25-2.09-.21-6.68-1.97-7.99Zm-5-.06a1.83 1.83 0 1 1 1.83-1.83 1.84 1.84 0 0 1-1.87 1.83Zm2.59 2a2.38 2.38 0 0 1 .77.3 10.13 10.13 0 0 1 .89 5.15 4.1 4.1 0 0 1-.12.77c-1.57.37-7 .43-8.17 0a2.89 2.89 0 0 1-.21-.91c-.23-2.17.54-4.66 1-5a2.22 2.22 0 0 1 .66-.29 4.74 4.74 0 0 0 5.14-.01ZM36.75 27.23a3.7 3.7 0 0 0-.66-.38 4.64 4.64 0 1 0-8.74.07 4 4 0 0 0-.49.3A6.07 6.07 0 0 0 25 30.69a13.12 13.12 0 0 0-.3 4.1c.17 1.63.74 2.68 1.7 3.1a17 17 0 0 0 5.23.6c.7 0 4.25 0 5.58-.59.86-.36 1.36-1.24 1.53-2.69.26-2.08-.23-6.67-1.99-7.98Zm-5-.06a1.83 1.83 0 1 1 1.83-1.83 1.84 1.84 0 0 1-1.87 1.83Zm2.59 2a2.38 2.38 0 0 1 .77.3 10.13 10.13 0 0 1 .89 5.16 4.1 4.1 0 0 1-.12.77c-1.56.37-7 .43-8.17 0a2.89 2.89 0 0 1-.21-.91c-.23-2.17.54-4.66 1-5a2.22 2.22 0 0 1 .66-.29 4.74 4.74 0 0 0 5.14-.02ZM43 18.71a17 17 0 0 0 5.23.6c.7 0 4.25 0 5.58-.59.86-.36 1.36-1.24 1.53-2.69.25-2.09-.21-6.68-2-8a3.73 3.73 0 0 0-.66-.38 4.64 4.64 0 1 0-8.74.07 4 4 0 0 0-.49.3 6.07 6.07 0 0 0-1.88 3.48 13.12 13.12 0 0 0-.3 4.1c.17 1.65.73 2.69 1.73 3.11ZM48.3 8a1.83 1.83 0 1 1 1.83-1.83A1.84 1.84 0 0 1 48.3 8Zm2.59 2a2.38 2.38 0 0 1 .77.3 10.13 10.13 0 0 1 .89 5.15 4.18 4.18 0 0 1-.12.77c-1.56.37-7 .43-8.17 0a2.89 2.89 0 0 1-.21-.91c-.23-2.17.54-4.66 1-5a2.22 2.22 0 0 1 .66-.29 4.74 4.74 0 0 0 5.18-.02ZM36.75 8a3.73 3.73 0 0 0-.66-.38 4.64 4.64 0 1 0-8.74.07 4 4 0 0 0-.49.3A6.07 6.07 0 0 0 25 11.51a13.12 13.12 0 0 0-.3 4.1c.17 1.64.74 2.68 1.7 3.1a17 17 0 0 0 5.23.6c.7 0 4.25 0 5.58-.59.86-.36 1.36-1.24 1.53-2.69.26-2.09-.23-6.68-1.99-8.03Zm-5-.06a1.83 1.83 0 1 1 1.83-1.83A1.84 1.84 0 0 1 31.71 8Zm2.59 2a2.38 2.38 0 0 1 .77.3 10.13 10.13 0 0 1 .89 5.2 4.18 4.18 0 0 1-.12.77c-1.56.37-7 .43-8.17 0a2.89 2.89 0 0 1-.21-.91c-.23-2.17.54-4.66 1-5a2.22 2.22 0 0 1 .66-.29A4.74 4.74 0 0 0 34.3 10Z"/></symbol><symbol id="clinic-change-icon" viewBox="0 0 80 40"><polygon points="11.34 29.55 1.8 20 11.34 10.45 13.46 12.57 6.04 20 13.46 27.43 11.34 29.55"/><polygon points="68.66 10.45 78.2 20 68.66 29.55 66.53 27.43 73.96 20 66.53 12.57 68.66 10.45"/><path d="M54.31 27.75a3.8 3.8 0 0 0-.7-.4 5.08 5.08 0 0 0 .28-1.63 5 5 0 0 0-10 0 4.92 4.92 0 0 0 .31 1.7 4.37 4.37 0 0 0-.53.32 6.54 6.54 0 0 0-2 3.73 13.94 13.94 0 0 0-.32 4.41c.18 1.75.8 2.87 1.82 3.32 1.26.56 4.06.64 5.62.64.75 0 4.56 0 6-.63.92-.39 1.46-1.33 1.64-2.88.26-2.25-.23-7.17-2.12-8.58Zm-5.41-.06a2 2 0 1 1 2-2 2 2 0 0 1-2 2Zm2.78 2.16a2.65 2.65 0 0 1 .83.32c.37.34 1.14 3.06 1 5.52a3.73 3.73 0 0 1-.13.83c-1.67.39-7.51.46-8.76 0a3.1 3.1 0 0 1-.22-1c-.24-2.33.58-5 1.11-5.38a2.5 2.5 0 0 1 .71-.31 5.07 5.07 0 0 0 5.46.02ZM36.51 27.75a4.28 4.28 0 0 0-.71-.4 4.82 4.82 0 0 0 .28-1.63 5 5 0 1 0-9.95 0 4.91 4.91 0 0 0 .3 1.7 5.31 5.31 0 0 0-.53.32 6.6 6.6 0 0 0-2 3.73 14.55 14.55 0 0 0-.32 4.41c.19 1.75.8 2.87 1.83 3.32 1.26.56 4.06.64 5.61.64.75 0 4.57 0 6-.63.92-.39 1.45-1.33 1.64-2.88.24-2.25-.25-7.17-2.15-8.58Zm-5.41-.06a2 2 0 1 1 2-2 2 2 0 0 1-2 2Zm2.78 2.16a2.41 2.41 0 0 1 .83.32c.38.34 1.15 3.06 1 5.52a4.46 4.46 0 0 1-.13.83c-1.68.39-7.51.46-8.76 0a3.1 3.1 0 0 1-.22-1c-.25-2.33.58-5 1.1-5.38a2.83 2.83 0 0 1 .71-.31 5.07 5.07 0 0 0 5.47.02ZM43.18 18.62c1.26.56 4.06.64 5.62.64.75 0 4.56 0 6-.63.92-.39 1.46-1.33 1.64-2.88.27-2.25-.22-7.17-2.11-8.58a3.8 3.8 0 0 0-.7-.41 5 5 0 1 0-9.37.08 4.37 4.37 0 0 0-.53.32 6.48 6.48 0 0 0-2 3.73 13.9 13.9 0 0 0-.32 4.4c.13 1.76.75 2.88 1.77 3.33ZM48.9 7.1a2 2 0 1 1 2-2 2 2 0 0 1-2 2Zm2.78 2.16a2.81 2.81 0 0 1 .83.33c.37.34 1.14 3.06 1 5.52a3.85 3.85 0 0 1-.13.83c-1.67.39-7.51.46-8.76 0a3.19 3.19 0 0 1-.22-1c-.24-2.33.58-5 1.11-5.38a2.23 2.23 0 0 1 .71-.31 5.09 5.09 0 0 0 5.46.01ZM36.51 7.17a4.28 4.28 0 0 0-.71-.41 4.72 4.72 0 0 0 .28-1.62 5 5 0 1 0-9.65 1.7 5.31 5.31 0 0 0-.53.32 6.53 6.53 0 0 0-2 3.73 14.51 14.51 0 0 0-.32 4.4c.19 1.76.8 2.88 1.83 3.33 1.26.56 4.06.64 5.61.64.75 0 4.57 0 6-.63.92-.39 1.45-1.33 1.64-2.88.24-2.25-.25-7.17-2.15-8.58ZM31.1 7.1a2 2 0 1 1 2-2 2 2 0 0 1-2 2Zm2.78 2.16a2.53 2.53 0 0 1 .83.33c.38.34 1.15 3.06 1 5.52a4.62 4.62 0 0 1-.13.83c-1.68.39-7.51.46-8.76 0a3.19 3.19 0 0 1-.22-1c-.25-2.33.58-5 1.1-5.38a2.35 2.35 0 0 1 .71-.31 5.09 5.09 0 0 0 5.47.01Z"/></symbol><symbol id="lightning-viewer-icon" viewBox="0 0 30 30"><polygon points="23.61 11.5 15 11.5 15 0 6.38 18.5 15 18.5 15 30 23.61 11.5"/></symbol><symbol id="tasks-icon" viewBox="0 0 30 30"><path d="m28.27 1.68.61.88a47.83 47.83 0 0 0-8.34 8.69 59.75 59.75 0 0 0-7 11l-1.3.88A22.08 22.08 0 0 0 10 24.76a27.46 27.46 0 0 0-1-2.7l-.49-1.14a17.54 17.54 0 0 0-2-3.63 4.39 4.39 0 0 0-2-1.56q1.89-2 3.47-2 1.35 0 3 3.66l.54 1.23a50.9 50.9 0 0 1 7.61-9.71 42.6 42.6 0 0 1 9.14-7.23Z"/><path d="M19.42 14.5a8.76 8.76 0 1 1-16.17 2.17h-.09l.13-.14a8.72 8.72 0 0 1 12.83-5.35c.45-.5.91-1 1.39-1.49a10.74 10.74 0 1 0 3.19 3.13c-.44.54-.87 1.12-1.28 1.68Z"/></symbol><symbol id="info-icon" viewBox="0 0 19 19"><path d="M9.5 0A9.5 9.5 0 1 0 19 9.5 9.5 9.5 0 0 0 9.5 0Zm2.12 16.69v-7l-5.57 2.49v.64l.52-.16a1.14 1.14 0 0 1 .83 0 .78.78 0 0 1 .44.49A6.29 6.29 0 0 1 8 14.79v2a7.51 7.51 0 1 1 3.68-.15Z"/><circle cx="9.5" cy="6.59" r="2.12"/></symbol><symbol id="local-edit-icon" viewBox="0 0 30 30"><path d="m20.56 17.93-8.49-8.49L21.51 0H0v30h30V8.49ZM8.28 21.72 10 11.47 18.53 20Z"/></symbol></defs></svg>