<svg xmlns="http://www.w3.org/2000/svg" viewBox="0 0 19 19"><style>*{fill:#C18C1A;}</style><circle cx="9.5" cy="2.5" r="2.5"/><path d="M6.401 8.31a37.083 37.083 0 0 1-3.491-.5 1.334 1.334 0 0 1 .501-2.62c3.452.661 6.869.799 10.247.333a28.607 28.607 0 0 0 1.912-.329 1.333 1.333 0 0 1 .54 2.612 32.075 32.075 0 0 1-3.522.523.115.115 0 0 1 .003.026l1 9.112a1.334 1.334 0 0 1-2.65.291l-.516-4.702H8.562l-.516 4.702a1.335 1.335 0 0 1-1.471 1.18 1.335 1.335 0 0 1-1.18-1.471l1-9.112.006-.045Z"/><circle cx="1.092" cy="1.092" r="1.092"/><circle cx="1.092" cy="17.908" r="1.092"/><circle cx="17.908" cy="1.092" r="1.092"/><circle cx="17.908" cy="17.908" r="1.092"/></svg>