<svg xmlns="http://www.w3.org/2000/svg" viewBox="0 0 19 19"><style>*{fill:#fff;}</style><path d="M16.48 17.63a14.79 14.79 0 0 1-2.83-2.17l-1.72-1.71L14.55 11a9.41 9.41 0 0 1 1.68-1.5 2.39 2.39 0 0 1 1.21-.31l.11-.41h-4.8l-.11.41a.83.83 0 0 1 .6.16.42.42 0 0 1 .07.41 2.46 2.46 0 0 1-.61.83l-.52.56-1 1.16-.32.35-3-2.94a6.42 6.42 0 0 0 3.53-1.82 4.42 4.42 0 0 0 1.14-3 4.22 4.22 0 0 0-1-2.81A5.09 5.09 0 0 0 9.1.44 16.41 16.41 0 0 0 4.65 0H0a4.62 4.62 0 0 0 .09 1.13 3.88 3.88 0 0 1 .39 2.22v12.23a4.42 4.42 0 0 1-.29 2.05 10.53 10.53 0 0 0 0 1.3h3.75v-.54c0-.18-.26-.24-.44-.61a5.07 5.07 0 0 1-.35-2.21v-5.5h2.01l4.14 4.19L7 16.67a11.22 11.22 0 0 1-1.77 1.62 2.46 2.46 0 0 1-1.12.31L4 19h4.8l.11-.4a1 1 0 0 1-.72-.22.39.39 0 0 1-.1-.41 5.62 5.62 0 0 1 1.06-1.29l1.25-1.31 3.55 3.57H19v-.52a5.81 5.81 0 0 1-2.52-.79ZM3.93 9.21h-.78V1.33a12.33 12.33 0 0 1 2.19-.27 4 4 0 0 1 2.94 1.11 3.9 3.9 0 0 1 1.11 2.88A3.75 3.75 0 0 1 8 8a6.15 6.15 0 0 1-4.07 1.21Z"/></svg>