<svg xmlns="http://www.w3.org/2000/svg" viewBox="0 0 19 19"><style>*{fill:#fff;}</style><path d="M11.625 16.688V9.727l-5.573 2.457-.026.64c.203-.068.377-.122.524-.164.322-.091.599-.079.832.034.232.114.38.278.44.493.097.342.142.877.137 1.606l-.011 1.833c0 .814.632 1.59 1.552 1.983-3.13-.509-4.415-1.835-5.602-3.397C2.744 13.693 2 11.554 2 9.5 2 5.364 5.364 2 9.5 2S17 5.364 17 9.5c0 3.396-2.272 6.269-5.375 7.188M9.5 0a9.5 9.5 0 1 0 0 19 9.5 9.5 0 0 0 0-19"/><path d="M11.625 6.587a2.125 2.125 0 1 1-4.25 0 2.125 2.125 0 0 1 4.25 0"/></svg>