<svg xmlns="http://www.w3.org/2000/svg" viewBox="0 0 19 19"><style>*{fill:#fff;}</style><path d="M2.078 3.975a1.333 1.333 0 0 1 2.17 1.55c-1.946 2.725-2.077 5.36-.046 7.89a1.334 1.334 0 0 1-2.079 1.67c-2.861-3.563-2.786-7.272-.045-11.11Zm14.844 0a1.333 1.333 0 0 0-2.17 1.55c1.946 2.725 2.077 5.36.046 7.89a1.334 1.334 0 0 0 2.079 1.67c2.861-3.563 2.786-7.272.045-11.11ZM8.5 10.833a1.333 1.333 0 0 1 0-2.666h2a1.333 1.333 0 0 1 0 2.666h-2Z"/><path d="M1.333 10.833a1.333 1.333 0 0 1 0-2.666h3.039a1.334 1.334 0 0 1 0 2.666H1.333Zm13.295 0a1.334 1.334 0 0 1 0-2.666h3.039a1.333 1.333 0 0 1 0 2.666h-3.039Z"/></svg>