<svg xmlns="http://www.w3.org/2000/svg" width="60" height="60" viewBox="0 0 60 60"><title>patient</title><style>*{ fill:rgba(255,255,255,0.1);}</style><path d="M52.41,41.55c-.09-.94-.17-1.77-.22-2.42-.38-5.09-2-16.56-8.36-17.71a13.68,13.68,0,0,0-4.65-4.09,10.79,10.79,0,1,0-18.92-3.61l-.65.1a4.58,4.58,0,0,0-2.18-.73h0c-6.57-.33-8.62,10.64-9.2,15.36-.07.57-.18,1.29-.29,2.11C7,36.82,6.35,42.64,8.09,45.1a5.54,5.54,0,0,0,4.73,2.08h.4a11.78,11.78,0,0,0,1.7-.24c2.64,3.4,8.9,9,21.58,9,.64,0,1.46,0,2.16-.07a4.22,4.22,0,0,0,.23.54c1.08,2,4.25,3.35,6.82,3.58q.47,0,.91,0a5.93,5.93,0,0,0,4.86-2C53.56,55.32,53.11,48.69,52.41,41.55ZM30.63,3.18a7.6,7.6,0,1,1-7.6,7.6A7.61,7.61,0,0,1,30.63,3.18ZM13.19,44l-.1,0a2.83,2.83,0,0,1-2.4-.73c-1.15-1.63-.07-9.06.39-12.23.12-.85.23-1.59.3-2.18.53-4.29,1.88-8.71,3.6-11C11,25.26,11.74,39.56,13.19,44ZM39.61,22.67c-2.27,2.44-2.11,7.47-1.76,12.41,0,.58.08,1.09.1,1.5.1,2.23.07,4.94,0,7.56,0,3.58,0,6.41.12,8.53-15.44.52-20.85-7.61-21.8-9.4-1.66-3.14-2.11-22.69,3.4-26.23a16.48,16.48,0,0,1,1.93-.29,10.75,10.75,0,0,0,15.14,2.87,13,13,0,0,1,3.51,2.45A4.34,4.34,0,0,0,39.61,22.67ZM49,56a3.4,3.4,0,0,1-3,.79c-2.14-.19-3.94-1.24-4.29-1.9-.62-1.17-.56-6.69-.53-10.72,0-2.66.05-5.42-.05-7.73,0-.43-.06-1-.1-1.59-.2-2.72-.6-8.38.91-10a1,1,0,0,1,.81-.34h0c3.54,0,5.69,7.47,6.25,14.87.05.67.13,1.53.23,2.49C49.6,45.54,50.44,54.14,49,56Z"/></svg>