<svg xmlns="http://www.w3.org/2000/svg" viewBox="0 0 126 49"><style>*{fill:#989898;}</style><path d="M23 17.19a21.77 21.77 0 0 1 3.47-.26 5.84 5.84 0 0 1 3.88 1 3.19 3.19 0 0 1 1.08 2.52 3.36 3.36 0 0 1-2.28 3.16v.06a3.2 3.2 0 0 1 1.76 2.43 25.12 25.12 0 0 0 1 3.51h-2.37a17.75 17.75 0 0 1-.84-3c-.35-1.64-1-2.17-2.26-2.2h-1.16v5.17H23Zm2.28 5.57h1.36c1.55 0 2.52-.82 2.52-2.07s-1-2-2.47-2a6.57 6.57 0 0 0-1.42.11ZM94.36 16.86h2.3v10.67h5.17v1.92h-7.47Z"/><circle cx="70.75" cy="22.75" r="3.75"/><circle cx="55" cy="22.75" r="3.75"/><path d="M63 5.47A19.5 19.5 0 1 1 43.5 25 19.52 19.52 0 0 1 63 5.47m0-5A24.5 24.5 0 1 0 87.5 25 24.5 24.5 0 0 0 63 .47Z"/></svg>