<svg xmlns="http://www.w3.org/2000/svg" viewBox="0 0 19 19"><style>path{fill:rgba(255,255,255,0.8)}.b{fill:#f00;}.a{fill:#0c0;}</style><path d="M9.5 17.68a9.1 9.1 0 0 0 9.5-.84v-2.71a7.11 7.11 0 0 1-9.5 1.23 7.07 7.07 0 0 1-2 1A7.13 7.13 0 0 1 0 14.13v2.71a9.1 9.1 0 0 0 9.5.84ZM5.43 2.36a7.17 7.17 0 0 1 2.08.31 7.07 7.07 0 0 1 2 1 7.07 7.07 0 0 1 2-1A7.13 7.13 0 0 1 19 4.87V2.16a9.1 9.1 0 0 0-9.5-.84 9.1 9.1 0 0 0-9.5.84v2.71a7.11 7.11 0 0 1 5.43-2.51Z"/><circle cx="5.06" cy="9.5" r="3" class="a"/><circle cx="13.94" cy="9.5" r="3" class="b"/></svg>