<svg xmlns="http://www.w3.org/2000/svg" viewBox="0 0 19 19"><style>.a{fill:#fff;}.ma{fill:#fff;}.mb{fill:#000;}</style><path d="M9.5 18.63A6.23 6.23 0 0 1 5 16.69a5.68 5.68 0 0 1-1.58-4.22C3.55 10 4.82 8.28 6 6.66a18.19 18.19 0 0 0 2.36-3.72L9.47.37l1.17 2.55a19.08 19.08 0 0 0 2.28 3.61c1.31 1.75 2.54 3.4 2.67 6A5.65 5.65 0 0 1 14 16.7a6.2 6.2 0 0 1-4.5 1.93zm0-12.58C9 6.84 8.51 7.52 8 8.16c-1.13 1.5-2 2.69-2.12 4.45A3.17 3.17 0 0 0 6.8 15a3.72 3.72 0 0 0 5.39 0 3.21 3.21 0 0 0 .9-2.38c-.09-1.78-1-3-2.17-4.58-.45-.62-.92-1.26-1.4-1.99z" class="a"/><circle cx="14" cy="14" r="5" class="ma"/><polygon points="13.01 17.19 10.13 14.3 11.46 12.97 13.01 14.52 16.78 10.75 18.11 12.09 17.22 12.98 13.01 17.19" class="mb"/></svg>