<svg xmlns="http://www.w3.org/2000/svg" viewBox="0 0 19 19"><style>*{fill:#fff;}</style><path d="M0 0v19h19V0Zm14.1 8.54a5.37 5.37 0 0 1-1 1.29 9 9 0 0 1-1.4 1.05l-1.56.92c-.52.3-1 .6-1.49.89a5.8 5.8 0 0 0-1.18 1h6.09l-.5 2.15H3.92a4.76 4.76 0 0 1 .51-2 5.49 5.49 0 0 1 1.13-1.49 8.66 8.66 0 0 1 1.55-1.15c.58-.34 1.16-.67 1.76-1l1-.55a6.62 6.62 0 0 0 1-.64 3.56 3.56 0 0 0 .78-.82A1.88 1.88 0 0 0 12 7.08a1.53 1.53 0 0 0-.56-1.33 2.29 2.29 0 0 0-1.35-.4 2 2 0 0 0-.92.21 2.12 2.12 0 0 0-.71.55 2.93 2.93 0 0 0-.46.81 3.14 3.14 0 0 0-.18 1h-2.4a5 5 0 0 1 1.5-3.46 4.86 4.86 0 0 1 3.45-1.26 5.76 5.76 0 0 1 1.63.22 4 4 0 0 1 1.31.68 3.37 3.37 0 0 1 .89 1.17 4 4 0 0 1 .32 1.65 3.46 3.46 0 0 1-.42 1.62Z"/></svg>