<svg xmlns="http://www.w3.org/2000/svg" viewBox="0 0 19 19"><style>*{fill:#fff;}</style><rect width="1" height="1" x="9" y="3.47"/><rect width="1" height="1" x="9" y="5.33"/><rect width="1" height="1" x="9" y="7.2"/><rect width="1" height="1" x="9" y="9.06"/><rect width="1" height="1" x="9" y="10.93"/><rect width="1" height="1" x="9" y="12.8"/><rect width="1" height="1" x="9" y="14.66"/><path d="M7.45 8.06a3.31 3.31 0 1 1 0-6.61zM7.45 17.55H4.8c-1.58 0-2.86-.78-2.86-2.36V11.9A2.7 2.7 0 0 1 4.8 9.24h2.65zM11.55 8.06a3.31 3.31 0 1 0 0-6.61zM11.55 17.55h2.55c1.58 0 2.86-.78 2.86-2.36V11.9a2.7 2.7 0 0 0-2.86-2.66h-2.55z"/><rect width="1" height="1" x="7.45" y="1.45"/><rect width="1" height="1" x="7.45" y="16.55"/><rect width="1" height="1" x="10.55" y="16.55"/><rect width="1" height="1" x="10.55" y="1.45"/></svg>