<svg xmlns="http://www.w3.org/2000/svg" viewBox="0 0 19 19"><style>*{fill:#fff;}</style><path d="M5.319 9.202a2.661 2.661 0 0 1-2.66 2.662A2.661 2.661 0 0 1 0 9.202 2.661 2.661 0 0 1 2.659 6.54a2.661 2.661 0 0 1 2.66 2.662m0-6.465a2.661 2.661 0 0 1-2.66 2.662A2.661 2.661 0 0 1 0 2.737 2.661 2.661 0 0 1 2.659.075a2.661 2.661 0 0 1 2.66 2.662m7.853-.05a2.66 2.66 0 1 1-5.319 0 2.66 2.66 0 1 1 5.319 0m-2.66 5.209a2.373 2.373 0 0 1 2.369 2.372 2.373 2.373 0 0 1-2.369 2.371 2.373 2.373 0 0 1-2.369-2.371 2.373 2.373 0 0 1 2.369-2.372m2.614 5.443a4.03 4.03 0 0 0 1.421-3.071c0-2.228-1.81-4.04-4.035-4.04a4.042 4.042 0 0 0-4.035 4.04 4.03 4.03 0 0 0 1.421 3.071c-2.45.796-4.093 2.704-4.093 5.048a.834.834 0 1 0 1.666 0c0-2.156 2.168-3.781 5.041-3.781s5.041 1.625 5.041 3.781a.834.834 0 1 0 1.666 0c0-2.344-1.643-4.252-4.093-5.048"/></svg>