<svg xmlns="http://www.w3.org/2000/svg" viewBox="0 0 19 19"><style>*{fill:#fff;}</style><path d="M17.49 3.55a.5.5 0 0 0-.35-.14h-3.43L13 1.59a1.79 1.79 0 0 0-.66-.77 1.75 1.75 0 0 0-1-.32H7.68a1.78 1.78 0 0 0-1 .32 1.7 1.7 0 0 0-.65.77l-.74 1.82H1.86a.5.5 0 0 0-.35.14.48.48 0 0 0-.13.35v.73a.49.49 0 0 0 .13.37.49.49 0 0 0 .35.13h1v10.7a2.62 2.62 0 0 0 .56 1.68 1.72 1.72 0 0 0 1.38.72h9.46a1.7 1.7 0 0 0 1.38-.74 2.72 2.72 0 0 0 .56-1.71V5.11h1a.45.45 0 0 0 .48-.48V3.9a.48.48 0 0 0-.19-.35zM7.14 3.41l.48-1.14a.12.12 0 0 1 .09-.06h3.57a.16.16 0 0 1 .11.07l.47 1.14zm-2.6 12.35V5.11h9.93v10.65a1.42 1.42 0 0 1-.07.42.83.83 0 0 1-.15.27.23.23 0 0 1-.05.05H4.8a.23.23 0 0 1 0-.05.88.88 0 0 1-.14-.27 1.16 1.16 0 0 1-.12-.42z"/><path d="M7.42 7.35v6.24a.33.33 0 0 1-.1.25.36.36 0 0 1-.25.1h-.69a.36.36 0 0 1-.25-.1.33.33 0 0 1-.1-.25V7.35a.3.3 0 0 1 .1-.25.32.32 0 0 1 .25-.1h.69a.32.32 0 0 1 .25.1.3.3 0 0 1 .1.25zM10.19 7.35v6.24a.37.37 0 0 1-.09.25.37.37 0 0 1-.25.1h-.7a.37.37 0 0 1-.25-.1.37.37 0 0 1-.09-.25V7.35A.33.33 0 0 1 9.15 7h.7a.33.33 0 0 1 .34.35zM13 7.35v6.24a.33.33 0 0 1-.1.25.36.36 0 0 1-.25.1h-.69a.36.36 0 0 1-.25-.1.33.33 0 0 1-.1-.25V7.35a.3.3 0 0 1 .1-.25.32.32 0 0 1 .25-.1h.69a.32.32 0 0 1 .25.1.3.3 0 0 1 .1.25z"/></svg>