<svg xmlns="http://www.w3.org/2000/svg" viewBox="0 0 19 19"><title>trash</title><style>*{fill:#336;}</style><path d="M7.42,7.44v6.24a.33.33,0,0,1-.35.35h-.7A.33.33,0,0,1,6,13.68V7.44a.33.33,0,0,1,.35-.35h.7a.33.33,0,0,1,.35.35Zm2.78,0v6.24a.34.34,0,0,1-.1.25.34.34,0,0,1-.25.1H9.15a.34.34,0,0,1-.25-.1.35.35,0,0,1-.1-.25V7.44a.33.33,0,0,1,.1-.25.34.34,0,0,1,.25-.1h.69a.34.34,0,0,1,.25.1A.34.34,0,0,1,10.19,7.44Zm2.77,0v6.24a.33.33,0,0,1-.35.35h-.69a.33.33,0,0,1-.35-.35V7.44a.33.33,0,0,1,.35-.35h.69a.33.33,0,0,1,.35.35Zm1.39,7.85V5H4.64V15.28a1.23,1.23,0,0,0,.08.44,1,1,0,0,0,.16.29q.08.09.11.09h9s.06,0,.11-.09a1,1,0,0,0,.16-.29A1.24,1.24,0,0,0,14.36,15.28ZM7.07,3.62h4.86l-.52-1.27a.3.3,0,0,0-.18-.12H7.79a.3.3,0,0,0-.18.12ZM17.13,4v.7a.33.33,0,0,1-.35.35h-1V15.28a2.46,2.46,0,0,1-.51,1.56A1.51,1.51,0,0,1,14,17.5H5a1.52,1.52,0,0,1-1.22-.64,2.38,2.38,0,0,1-.51-1.53V5h-1a.33.33,0,0,1-.35-.35V4a.33.33,0,0,1,.35-.35H5.57l.76-1.81a1.49,1.49,0,0,1,.58-.68A1.53,1.53,0,0,1,7.77.85h3.47a1.53,1.53,0,0,1,.86.28,1.52,1.52,0,0,1,.59.68l.76,1.81h3.35a.33.33,0,0,1,.35.35Z"/></svg>
