<svg xmlns="http://www.w3.org/2000/svg" viewBox="0 0 19 19"><title>exclamation</title><style>*{fill:#dda01d;}</style><path d="M7.12.31A9.49,9.49,0,1,0,18.69,7.12,9.48,9.48,0,0,0,7.12.31Zm4.26,16.45A7.5,7.5,0,0,1,7.62,2.24l.24-.05a30.29,30.29,0,0,0,.4,3.32c.17,1,.37,1.79.56,3.41l1.46-.15c.26-1.71.54-2.68.79-4,.2-1,.35-1.86.46-2.5a7.49,7.49,0,0,1-.15,14.47Z"/><path d="M9,10.29a2.33,2.33,0,0,0-1.48,1.12,2.36,2.36,0,0,0-.26,1.83,2.41,2.41,0,0,0,3,1.74,2.42,2.42,0,0,0,.62-4.43A2.32,2.32,0,0,0,9,10.29Z"/></svg>