<svg xmlns="http://www.w3.org/2000/svg" viewBox="0 0 19 19"><title>comments-who</title><style>*{fill:#003;}</style><path d="M17.35,4.17a8.43,8.43,0,0,0-3.3-2.75,10.17,10.17,0,0,0-4.51-1A10.2,10.2,0,0,0,5,1.42a8.43,8.43,0,0,0-3.3,2.75A6.73,6.73,0,0,0,.5,8a6.52,6.52,0,0,0,.93,3.38,8,8,0,0,0,2.22,2.41,3.53,3.53,0,0,1-.15.46q-.13.38-.24.63a5.66,5.66,0,0,1-.28.5,4.06,4.06,0,0,1-.26.4l-.33.42-.28.37L2,16.73l-.06.1L1.85,17a.91.91,0,0,0-.11.32.76.76,0,0,0,0,.4,1.08,1.08,0,0,0,.28.54.84.84,0,0,0,.62.27h.12a6.79,6.79,0,0,0,1.17-.26,10.45,10.45,0,0,0,4.41-2.64c.41,0,.82.06,1.2.06a10.17,10.17,0,0,0,4.51-1,8.43,8.43,0,0,0,3.3-2.75,6.69,6.69,0,0,0,0-7.73ZM9.54,13.23a9.86,9.86,0,0,1-1.17-.08s-2.54,2.64-4,3a11.48,11.48,0,0,0,1.5-3.74L5.1,12a5.82,5.82,0,0,1-1.77-1.8A4,4,0,0,1,2.72,8,4.07,4.07,0,0,1,3.61,5.5a6.46,6.46,0,0,1,2.5-1.93,8.09,8.09,0,0,1,3.43-.73A8.09,8.09,0,0,1,13,3.57a6.46,6.46,0,0,1,2.5,1.93,4.06,4.06,0,0,1,0,5.07A6.46,6.46,0,0,1,13,12.5,8.25,8.25,0,0,1,9.54,13.23Z"/><circle cx="9.6" cy="6.49" r="2.12"/><path d="M10.9,9.33H8.3a1.73,1.73,0,0,0-1.72,1.73v1a11.24,11.24,0,0,0,6-.13v-.92A1.73,1.73,0,0,0,10.9,9.33Z"/></svg>