<svg xmlns="http://www.w3.org/2000/svg" viewBox="0 0 19 19"><title>comments</title><style>*{fill:#003;}</style><path d="M17.35,4.17A8.42,8.42,0,0,0,14,1.42a10.25,10.25,0,0,0-4.51-1A10.25,10.25,0,0,0,5,1.42a8.42,8.42,0,0,0-3.3,2.75A6.64,6.64,0,0,0,.5,8a6.55,6.55,0,0,0,.93,3.38,8,8,0,0,0,2.22,2.41c0,.16-.09.31-.15.46s-.17.46-.25.63a3.88,3.88,0,0,1-.27.5c-.12.19-.21.32-.27.4l-.33.42-.28.37-.1.13-.07.09L1.85,17a.74.74,0,0,0-.11.33.74.74,0,0,0,0,.4,1.08,1.08,0,0,0,.28.54.85.85,0,0,0,.62.27h.12a6.89,6.89,0,0,0,1.17-.27,10.52,10.52,0,0,0,4.41-2.64,11.7,11.7,0,0,0,1.2.06,10.25,10.25,0,0,0,4.51-1,8.43,8.43,0,0,0,3.3-2.75,6.66,6.66,0,0,0,0-7.72ZM9.54,13.23a8.94,8.94,0,0,1-1.17-.08s-2.54,2.65-4,3a11.7,11.7,0,0,0,1.5-3.73l-.73-.49a5.75,5.75,0,0,1-1.77-1.8A4,4,0,0,1,3.61,5.5a6.43,6.43,0,0,1,2.5-1.93,8.19,8.19,0,0,1,3.43-.73A8.19,8.19,0,0,1,13,3.57a6.43,6.43,0,0,1,2.5,1.93,4,4,0,0,1,0,5.07A6.43,6.43,0,0,1,13,12.5,8.19,8.19,0,0,1,9.54,13.23Z"/></svg>