<svg xmlns="http://www.w3.org/2000/svg" viewBox="0 0 19 19"><title>collapse</title><style>*{fill:#003;}</style><path d="M13.83,14.18a.93.93,0,0,1-1-.83A3.08,3.08,0,0,0,9.5,10.61a3.08,3.08,0,0,0-3.33,2.74.93.93,0,0,1-1,.83.92.92,0,0,1-1-.83C4.17,10.93,6.56,9,9.5,9s5.33,2,5.33,4.38A.92.92,0,0,1,13.83,14.18Z"/><path d="M9.5,2A7.5,7.5,0,0,1,17,9.5c0,2.17,0,4.64-1.37,6.17-1.1,1.23-3,1.33-5.4,1.33H8.77c-2.39,0-4.3-.1-5.4-1.33C2,14.14,2,11.67,2,9.5A7.5,7.5,0,0,1,9.5,2m0-2A9.5,9.5,0,0,0,0,9.5C0,12,0,14.9,1.87,17c1.72,1.92,4.33,2,6.9,2h1.46c2.57,0,5.18-.08,6.9-2C19,14.9,19,12,19,9.5A9.5,9.5,0,0,0,9.5,0Z"/><path d="M3.41,9.56a1.54,1.54,0,0,1-.58-1.09,1.45,1.45,0,0,1,.36-1.08,2.57,2.57,0,0,1,1.43-.72,4.41,4.41,0,0,0,1-.37L6.29,6l-.17.68A5.28,5.28,0,0,0,6,7.73a2.6,2.6,0,0,1-.42,1.59h0a1.45,1.45,0,0,1-1,.58A1.57,1.57,0,0,1,3.41,9.56Zm2-2.46c-.22.08-.43.13-.62.18a1.93,1.93,0,0,0-1.12.53.8.8,0,0,0-.2.61.93.93,0,0,0,.34.65.92.92,0,0,0,.71.2A.8.8,0,0,0,5.07,9h0a2,2,0,0,0,.29-1.24C5.37,7.52,5.38,7.32,5.4,7.1Z"/><path d="M5.44,6.85a.73.73,0,0,1-.64-.36.76.76,0,0,1,.25-1,3.48,3.48,0,0,1,3-.33.76.76,0,0,1,.47,1,.74.74,0,0,1-1,.46,2,2,0,0,0-1.77.2A.78.78,0,0,1,5.44,6.85Z"/><path d="M13.56,6.85a.78.78,0,0,1-.39-.1,2,2,0,0,0-1.77-.2.74.74,0,0,1-1-.46.76.76,0,0,1,.47-1,3.52,3.52,0,0,1,3,.33.75.75,0,0,1,.25,1A.73.73,0,0,1,13.56,6.85Z"/></svg>