<svg xmlns="http://www.w3.org/2000/svg" viewBox="0 0 19 19"><title>Drop</title><style>*{fill:#003;}</style><path class="a" d="M9.5,18.63A6.23,6.23,0,0,1,5,16.69a5.68,5.68,0,0,1-1.58-4.22C3.55,10,4.82,8.28,6,6.66A18.19,18.19,0,0,0,8.36,2.94L9.47.37l1.17,2.55a19.08,19.08,0,0,0,2.28,3.61c1.31,1.75,2.54,3.4,2.67,6h0A5.65,5.65,0,0,1,14,16.7,6.2,6.2,0,0,1,9.5,18.63Zm0-12.58C9,6.84,8.51,7.52,8,8.16c-1.13,1.5-2,2.69-2.12,4.45A3.17,3.17,0,0,0,6.8,15a3.72,3.72,0,0,0,5.39,0,3.21,3.21,0,0,0,.9-2.38h0c-.09-1.78-1-3-2.17-4.58C10.47,7.42,10,6.78,9.52,6.05Z"/></svg>