<svg xmlns="http://www.w3.org/2000/svg" viewBox="0 0 19 19"><title>move</title><style>*{fill:#003;}</style><polygon points="8.75 2.87 8.75 7.06 10.25 7.06 10.25 2.87 12.09 4.71 13.15 3.65 9.5 0 5.85 3.65 6.91 4.71 8.75 2.87"/><polygon points="7.06 10.25 7.06 8.75 2.87 8.75 4.71 6.91 3.65 5.85 0 9.5 3.65 13.15 4.71 12.09 2.87 10.25 7.06 10.25"/><polygon points="10.25 16.13 10.25 11.94 8.75 11.94 8.75 16.13 6.91 14.29 5.85 15.35 9.5 19 13.15 15.35 12.09 14.29 10.25 16.13"/><polygon points="15.35 5.85 14.29 6.91 16.13 8.75 11.94 8.75 11.94 10.25 16.13 10.25 14.29 12.09 15.35 13.15 19 9.5 15.35 5.85"/></svg>