<svg xmlns="http://www.w3.org/2000/svg" viewBox="0 0 60 60"><style>*{fill:#003;}</style><circle cx="7" cy="7" r="7"/><circle cx="53.1" cy="7" r="7"/><circle cx="30" cy="7" r="7"/><circle cx="7" cy="41" r="7"/><circle cx="53.1" cy="41" r="7"/><circle cx="7" cy="24" r="7"/><circle cx="53.1" cy="24" r="7"/><circle cx="30" cy="24" r="7"/><path d="M36.88,52a10.62,10.62,0,1,0-13.76,0c-6.45,2.09-10.77,7.11-10.77,13.27a2.19,2.19,0,0,0,4.39,0c0-5.67,5.7-9.94,13.27-9.94s13.27,4.27,13.27,9.94a2.19,2.19,0,0,0,4.39,0C47.66,59.12,43.33,54.1,36.88,52ZM30,37.7a6.24,6.24,0,1,1-6.24,6.24A6.24,6.24,0,0,1,30,37.7Z"/></svg>