<svg xmlns="http://www.w3.org/2000/svg" viewBox="0 0 19 19"><style>circle{fill:#FF4715}.in{fill:#FE951C}.out{fill:#FA6800}</style><path class="out" d="M9.5 0C14.743 0 19 4.257 19 9.5S14.743 19 9.5 19 0 14.743 0 9.5 4.257 0 9.5 0Zm0 2.667A6.837 6.837 0 0 0 2.667 9.5 6.837 6.837 0 0 0 9.5 16.333 6.837 6.837 0 0 0 16.333 9.5 6.837 6.837 0 0 0 9.5 2.667Z"/><path class="in" d="M9.5 3.5c3.311 0 6 2.689 6 6s-2.689 6-6 6-6-2.689-6-6 2.689-6 6-6Zm0 2.4a3.602 3.602 0 0 0-3.6 3.6c0 1.987 1.613 3.6 3.6 3.6s3.6-1.613 3.6-3.6-1.613-3.6-3.6-3.6Z"/><circle cx="9.5" cy="9.5" r="2"/></svg>