<svg xmlns="http://www.w3.org/2000/svg" viewBox="0 0 19 19"><style>path{fill:rgba(0,0,51,0.8)}.b{fill:#d00;}.a{fill:#080;}</style><path d="M9.5,17.68a9.1,9.1,0,0,0,9.5-.84V14.13a7.11,7.11,0,0,1-9.5,1.23,7.07,7.07,0,0,1-2,1A7.13,7.13,0,0,1,0,14.13v2.71a9.1,9.1,0,0,0,9.5.84Z"/><path d="M5.43,2.36a7.17,7.17,0,0,1,2.08.31,7.07,7.07,0,0,1,2,1,7.07,7.07,0,0,1,2-1A7.13,7.13,0,0,1,19,4.87V2.16a9.1,9.1,0,0,0-9.5-.84A9.1,9.1,0,0,0,0,2.16V4.87A7.11,7.11,0,0,1,5.43,2.36Z"/><circle class="a" cx="5.06" cy="9.5" r="3"/><circle class="b" cx="13.94" cy="9.5" r="3"/></svg>