<svg xmlns="http://www.w3.org/2000/svg" viewBox="0 0 19 19"><title>cog</title><style>*{fill:#003;}</style><path d="M17.59,11,15.7,9.91c0-.13,0-.27,0-.41s0-.28,0-.41L17.59,8a1.63,1.63,0,0,0,.59-2.23L17.07,3.84a1.63,1.63,0,0,0-2.23-.59L13,4.33a7.38,7.38,0,0,0-.72-.41V1.75A1.64,1.64,0,0,0,10.61.12H8.39A1.64,1.64,0,0,0,6.75,1.75V3.92A7.38,7.38,0,0,0,6,4.33L4.16,3.25a1.63,1.63,0,0,0-2.23.59L.82,5.77A1.63,1.63,0,0,0,1.41,8L3.3,9.09c0,.13,0,.27,0,.41s0,.28,0,.41L1.41,11a1.63,1.63,0,0,0-.59,2.23l1.11,1.93a1.63,1.63,0,0,0,2.23.59L6,14.67a7.38,7.38,0,0,0,.72.41v2.17a1.64,1.64,0,0,0,1.64,1.63h2.22a1.64,1.64,0,0,0,1.64-1.63V15.08a7.38,7.38,0,0,0,.72-.41l1.87,1.08a1.63,1.63,0,0,0,2.23-.59l1.11-1.93A1.63,1.63,0,0,0,17.59,11ZM9.5,12.67A3.17,3.17,0,1,1,12.67,9.5,3.16,3.16,0,0,1,9.5,12.67Z"/></svg>