<svg xmlns="http://www.w3.org/2000/svg" viewBox="0 0 19 19"><title>comments clear</title><style>*{fill:#003;}</style><path d="M17.308 4.215c.819 1.174 1.233 2.473 1.233 3.862 0 1.388-.415 2.687-1.233 3.861-.809 1.16-1.919 2.087-3.3 2.755-1.37.664-2.887 1-4.507 1-.387 0-.788-.021-1.198-.064-1.275 1.26-2.762 2.15-4.412 2.643a7.057 7.057 0 0 1-1.172.265l-.084.004h-.036a.846.846 0 0 1-.617-.269 1.083 1.083 0 0 1-.279-.535.74.74 0 0 1 0-.402.728.728 0 0 1 .109-.325l.085-.143.066-.094c.035-.048.066-.093.101-.134l.284-.367.328-.422c.059-.078.148-.211.267-.399.118-.185.209-.354.275-.502.071-.164.153-.372.246-.625.053-.149.102-.302.147-.461a7.934 7.934 0 0 1-2.219-2.406 6.545 6.545 0 0 1-.933-3.38c0-1.389.415-2.688 1.234-3.862.81-1.16 1.919-2.087 3.3-2.755C6.364.796 7.881.459 9.501.459s3.137.337 4.507 1.001c1.381.668 2.491 1.595 3.3 2.755Zm-3.85 1.209L12.18 4.148 9.5 6.829 6.82 4.148 5.542 5.424l2.682 2.681-2.682 2.681 1.278 1.276 2.68-2.68 2.68 2.68 1.278-1.276-2.682-2.681 2.682-2.681Z"/></svg>