<svg xmlns="http://www.w3.org/2000/svg" viewBox="0 0 19 19"><title>Copy over</title><style>*{fill:#003;}</style><path d="M9.5 7.603V19H0V.075h9.5v3.498c-.667-.077-1.428.001-2 .376V2.075H2V17h5.5V8.273c.305-.644 1.175-.879 2-.67Z"/><path d="m13.601 8.315-2.194 1.267 5.683 2.758.453-6.301-2.205 1.274c-1.204-2.081-2.946-3.17-6.028-2.871-3.76.366-6.841 4.278-4.825 7.76.461.796 1.095.427.685-.396-1.258-2.521.958-5.38 3.867-5.688 2.298-.243 3.352.443 4.564 2.197Z"/><circle cx="17.908" cy="17.908" r="1.092"/><circle cx="13.68" cy="17.908" r="1.092"/><circle cx="17.908" cy="1.092" r="1.092"/><circle cx="13.68" cy="1.092" r="1.092"/></svg>