<svg xmlns="http://www.w3.org/2000/svg" viewBox="0 0 19 19"><title>letter-in</title><style>*{fill:#003;}</style><path d="M6.36,6.48l-2.5,8.67a4.79,4.79,0,0,0-.21,1,.36.36,0,0,0,.11.25.32.32,0,0,0,.23.12.63.63,0,0,0,.41-.18,7.46,7.46,0,0,0,1.32-1.63l.41.24Q4.3,18.12,2.23,18.12A1.76,1.76,0,0,1,1,17.68,1.49,1.49,0,0,1,.5,16.55,4.18,4.18,0,0,1,.71,15.4L2.4,9.58a5,5,0,0,0,.24-1.27.62.62,0,0,0-.23-.48.92.92,0,0,0-.63-.21H1.34l.16-.49,4.13-.67ZM5.61.88a1.72,1.72,0,0,1,1.27.52A1.74,1.74,0,0,1,7.4,2.67a1.73,1.73,0,0,1-.52,1.27,1.78,1.78,0,0,1-2.52,0,1.73,1.73,0,0,1-.52-1.27A1.74,1.74,0,0,1,4.35,1.4,1.71,1.71,0,0,1,5.61.88Z"/><path d="M12.6,6.48l-1.51,5.23a30.89,30.89,0,0,1,2.28-3.13,8.09,8.09,0,0,1,1.91-1.66,3.18,3.18,0,0,1,1.51-.44A1.45,1.45,0,0,1,17.88,7a1.69,1.69,0,0,1,.45,1.22A5.94,5.94,0,0,1,18,9.84L16.48,15a4.33,4.33,0,0,0-.19.89.31.31,0,0,0,.09.22.26.26,0,0,0,.19.1.44.44,0,0,0,.26-.1,4.78,4.78,0,0,0,.87-1l.35-.51.46.28q-1.79,3-3.77,3a1.69,1.69,0,0,1-1.18-.39,1.27,1.27,0,0,1-.43-1A6.07,6.07,0,0,1,13.42,15l1.52-5.2a2.88,2.88,0,0,0,.16-.76A.32.32,0,0,0,15,8.84a.36.36,0,0,0-.26-.1,1.82,1.82,0,0,0-1.12.63,17.14,17.14,0,0,0-3.25,4.79l-1,3.62H6.25L8.53,10a7,7,0,0,0,.33-1.65A.59.59,0,0,0,8.76,8a.63.63,0,0,0-.32-.22,2.85,2.85,0,0,0-.83-.08l.13-.46,4.11-.72Z"/></svg>