<svg xmlns="http://www.w3.org/2000/svg" viewBox="0 0 19 19"><title>letter-GP</title><style>*{fill:#003;}</style><path d="M14.17,6h-.72V9.12h.72c1,0,2-.34,2-1.53S15.24,6,14.17,6Z"/><path d="M0,0V19H19V0ZM9.69,14.3a13,13,0,0,1-3.33.53C3,14.83.71,13.16.71,9.68s2.15-5.5,5.65-5.5a10.17,10.17,0,0,1,3,.43L9.25,6.34A6.74,6.74,0,0,0,6.6,5.8,3.51,3.51,0,0,0,2.86,9.53a3.39,3.39,0,0,0,3.5,3.67,5.57,5.57,0,0,0,1.36-.15V10.37H5.53V8.75H9.69Zm4.63-3.56h-.87v3.91H11.39V4.35H14c2.24,0,4.29.65,4.29,3.11S16.54,10.74,14.32,10.74Z"/></svg>