<svg xmlns="http://www.w3.org/2000/svg" viewBox="0 0 60 60"><title>patient</title><style>*{fill:#003;}</style><path d="M52.14,41.32l0-.18c-.08-.85-.16-1.6-.2-2.2C51.56,34,50,22.52,43.51,21.12a13.79,13.79,0,0,0-4.15-3.72,11,11,0,0,0,2-6.29,11.1,11.1,0,0,0-22.2,0,10.91,10.91,0,0,0,.27,2.42,5,5,0,0,0-2.14-.64c-6.87-.36-9,10.75-9.56,15.54-.07.56-.17,1.26-.29,2.06-.91,6.26-1.58,12.08.24,14.65,1.09,1.54,3,2.34,5.47,2.24a10.89,10.89,0,0,0,1.45-.19C17.32,50.58,23.6,56,36,56c.53,0,1.19,0,1.8-.05l.12.25c1.14,2.17,4.43,3.55,7.1,3.79.32,0,.64,0,.94,0a6.35,6.35,0,0,0,5.16-2.19C53.29,55.06,52.84,48.44,52.14,41.32ZM36.85,35.06c0,.55.08,1,.09,1.43.1,2.18.07,4.83,0,7.41,0,3.21,0,5.86.08,7.91-15.08.32-20-8-20.48-9-1.54-2.91-2-21.64,3.1-25.11.45-.09.94-.17,1.47-.23a11.07,11.07,0,0,0,15.16,2.87A12.83,12.83,0,0,1,39,22.16l-.3.3C36.35,25,36.5,30.07,36.85,35.06ZM30.23,4.11a7,7,0,1,1-7,7A7,7,0,0,1,30.23,4.11Zm10.82,32.2c0-.43-.06-1-.1-1.58-.17-2.4-.58-8,.77-9.48a.5.5,0,0,1,.44-.18c2.7,0,5,5.83,5.65,14.17.05.67.13,1.51.23,2.46.29,2.94,1.16,11.88-.15,13.55a3,3,0,0,1-2.5.59,5.85,5.85,0,0,1-3.83-1.61c-.55-1-.49-6.83-.46-10.31C41.13,41.33,41.16,38.62,41.06,36.31ZM12.43,43.26A1.9,1.9,0,0,1,11,42.75c-1-1.44.1-9.13.47-11.68l0-.13A46.78,46.78,0,0,0,12.43,43.26Z"/></svg>