<svg xmlns="http://www.w3.org/2000/svg" viewBox="0 0 19 19"><title>Query</title><style>*{fill:#003;}</style><path d="M6.53,5.26A1.63,1.63,0,0,1,7,5a1.13,1.13,0,0,1,.56-.13c.9,0,1.35.43,1.35,1.28a1.61,1.61,0,0,1-.62,1.29,2.24,2.24,0,0,1-1.51.52,2.5,2.5,0,0,1-1.88-.73,2.59,2.59,0,0,1-.72-1.9A4,4,0,0,1,5.84,2,6.89,6.89,0,0,1,10.11.75,6.52,6.52,0,0,1,14.23,2a3.84,3.84,0,0,1,1.64,3.24A4.08,4.08,0,0,1,13.36,9l-.47.2-.58.26a4.71,4.71,0,0,0-1.59.92,1.65,1.65,0,0,0-.42,1.18,2.31,2.31,0,0,1-.16,1,.74.74,0,0,1-.39.39,1.79,1.79,0,0,1-.64.11c-.85,0-1.28-.48-1.28-1.44a3.35,3.35,0,0,1,.59-2A8.22,8.22,0,0,1,11,7.68a7.69,7.69,0,0,0,1.92-1.33,1.73,1.73,0,0,0,.39-1.21,2,2,0,0,0-.88-1.73,3.88,3.88,0,0,0-2.34-.64,4.28,4.28,0,0,0-2.56.75,1.93,1.93,0,0,0-1,1.62ZM9.32,18a2,2,0,0,1-1.4-.54,1.86,1.86,0,0,1,0-2.7,1.93,1.93,0,0,1,1.4-.55,1.9,1.9,0,0,1,1.38.55,1.91,1.91,0,0,1,0,2.7A1.93,1.93,0,0,1,9.32,18Z"/></svg>