<svg xmlns="http://www.w3.org/2000/svg" viewBox="0 0 19 19"><title>ed-backward</title><style>*{fill:#336;}</style><path d="M7.27,18.06a1,1,0,0,1-1-.75c-.11-.15-.41-.46-.66-.72C4.37,15.28,2,12.84,2,9.5,2,6.34,4.05,4.21,5.41,2.8a8.5,8.5,0,0,0,.86-1,1,1,0,0,1,2,.12c0,.77-.59,1.39-1.42,2.24C5.65,5.43,4,7.14,4,9.5,4,12,5.85,13.94,7.08,15.2c.74.77,1.19,1.23,1.19,1.86A1,1,0,0,1,7.27,18.06Zm-.94-.7Zm-.06-.3h0Zm0-15.27Z"/><polygon points="6.98 10.5 14.17 10.5 10.98 13.69 12.4 15.1 16.59 10.91 18 9.5 16.59 8.09 12.4 3.9 10.98 5.31 14.17 8.5 6.98 8.5 6.98 10.5"/></svg>
