<svg xmlns="http://www.w3.org/2000/svg" viewBox="0 0 19 19"><title>ed-forward</title><style>*{fill:#336;}</style><path d="M7.27,18.06a1,1,0,0,1-1-.75c-.11-.15-.41-.46-.66-.72C4.37,15.28,2,12.84,2,9.5,2,6.34,4.05,4.21,5.41,2.8a8.5,8.5,0,0,0,.86-1,1,1,0,0,1,2,.12c0,.77-.59,1.39-1.42,2.24C5.65,5.43,4,7.14,4,9.5,4,12,5.85,13.94,7.08,15.2c.74.77,1.19,1.23,1.19,1.86A1,1,0,0,1,7.27,18.06Zm-.94-.7Zm-.06-.3h0Zm0-15.27Z"/><polygon points="18 8.5 10.81 8.5 14 5.31 12.59 3.9 8.4 8.09 6.98 9.5 8.4 10.91 12.59 15.1 14 13.69 10.81 10.5 18 10.5 18 8.5"/></svg>
