<svg xmlns="http://www.w3.org/2000/svg" viewBox="0 0 100 100"><title>patient-op</title><style>path{fill:rgb(150,150,150);}</style><path d="M83.67,99.28a2,2,0,0,1-2-2V58.67H63.75a2,2,0,0,1,0-4H85.67v42.6A2,2,0,0,1,83.67,99.28Z"/><path d="M16.33,99.28a2,2,0,0,1-2-2V54.67H35.25a2,2,0,0,1,0,4H18.33v38.6A2,2,0,0,1,16.33,99.28Z"/><path d="M72,66.06a19.78,19.78,0,0,0-7.72-4.26,17.45,17.45,0,1,0-29,.37A19,19,0,0,0,28.91,66c-5.52,5.35-8.33,20.29-8.66,32.73l5,.13c.36-13.3,3.36-25.61,7.14-29.27a16.2,16.2,0,0,1,6.69-3.48,17.35,17.35,0,0,0,21.38-.21c3.57.86,6.44,2.14,8,3.67,2.65,2.63,5.72,14.31,6.28,29.32l5-.18C79.23,85.83,76.65,70.72,72,66.06ZM37.17,52.27A12.46,12.46,0,1,1,49.63,64.73,12.47,12.47,0,0,1,37.17,52.27Z"/><path d="M46.35,54.53H42.1a1.5,1.5,0,0,1,0-3h4.25a1.5,1.5,0,0,1,0,3Z"/><path d="M57.22,54.53H53a1.5,1.5,0,0,1,0-3h4.25a1.5,1.5,0,0,1,0,3Z"/></svg>