<svg xmlns="http://www.w3.org/2000/svg" viewBox="0 0 80 80"><title>surgeon</title><style>*{fill:rgb(90,90,90);}</style><polygon points="40 69.39 49.46 59.94 47.59 58.07 40 65.66 32.41 58.07 30.54 59.94 40 69.39"/><path d="M57.9,34.22c0-.37.06-.74.06-1.12A18,18,0,0,0,22,33.1c0,.38,0,.75.06,1.12A30.72,30.72,0,0,0,6.3,61.35a3.5,3.5,0,0,0,7,0A23.78,23.78,0,0,1,24,41.3,17.92,17.92,0,0,0,56,41.3,23.78,23.78,0,0,1,66.7,61.35a3.5,3.5,0,0,0,7,0A30.72,30.72,0,0,0,57.9,34.22ZM40,45.06a12,12,0,1,1,12-12A12,12,0,0,1,40,45.06Z"/></svg>