<svg xmlns="http://www.w3.org/2000/svg" viewBox="0 0 30 30"><style>*{ fill:rgba(255,255,255,0.6);}</style><path d="M24.85,1.11l-.4.23A49.15,49.15,0,0,0,14,9.65,59.35,59.35,0,0,0,5.8,20l-.23-.52C4.2,16.4,3,15,1.7,15s-2.76.8-4.31,2.43l-.53.56.74.26a4.42,4.42,0,0,1,2.06,1.6,19.54,19.54,0,0,1,2.16,4l.56,1.29a30.44,30.44,0,0,1,1.11,3l.22.8.61-.57a24.23,24.23,0,0,1,2.43-1.84l1.58-1.07.06-.13A67.56,67.56,0,0,1,16.31,13,53.76,53.76,0,0,1,25.7,3.17l.39-.29Z"/><path d="M33.89,2.68l-.37.22a46.35,46.35,0,0,0-9.84,7.84,55.92,55.92,0,0,0-7.76,9.73L15.7,20c-.18-.4-.53-1.11-.53-1.11a18.65,18.65,0,0,0-3,5.27l.52,1.21a27.61,27.61,0,0,1,1.05,2.85L14,29l.57-.54a24.13,24.13,0,0,1,2.29-1.74l1.5-1,.06-.11a63.63,63.63,0,0,1,7.46-11.69,51.64,51.64,0,0,1,8.86-9.24l.37-.27Z"/></svg>