<svg xmlns="http://www.w3.org/2000/svg" viewBox="0 0 19 19"><style>*{ fill:rgba(255,255,255,0.8);}</style><path d="M6.22,13.13C7.1,8.37,9.2,5.92,9.2,3a2.85,2.85,0,0,0-3-2.68A2.84,2.84,0,0,0,3.24,3C3.24,5.92,5.33,8.37,6.22,13.13Z"/><path d="M6.21,13.38A2.46,2.46,0,0,1,8,14.14a2.55,2.55,0,0,1,0,3.63,2.57,2.57,0,0,1-3.65,0,2.58,2.58,0,0,1,1.82-4.39Z"/><path d="M12.78,13.13c.89-4.76,3-7.21,3-10.13a2.84,2.84,0,0,0-3-2.68A2.85,2.85,0,0,0,9.8,3C9.8,5.92,11.9,8.37,12.78,13.13Z"/><path d="M12.77,13.38a2.57,2.57,0,0,1,1.84,4.39,2.54,2.54,0,0,1-1.84.76A2.57,2.57,0,0,1,11,14.14,2.43,2.43,0,0,1,12.77,13.38Z"/></svg>