<svg xmlns="http://www.w3.org/2000/svg" viewBox="0 0 19 19"><title>doubt</title><style>circle{fill:rgb(177,77,11)}path{fill:rgb(220,210,210)}</style><circle cx="9.5" cy="9.5" r="9.5"/><path class="a" d="M6.54,6a1.83,1.83,0,0,1,.36-.26,1.06,1.06,0,0,1,.48-.11c.76,0,1.15.37,1.15,1.09A1.36,1.36,0,0,1,8,7.83a2,2,0,0,1-1.28.44,2.19,2.19,0,0,1-1.61-.62A2.22,2.22,0,0,1,4.5,6,3.45,3.45,0,0,1,6,3.25,5.91,5.91,0,0,1,9.6,2.18a5.52,5.52,0,0,1,3.5,1A3.3,3.3,0,0,1,14.5,6a3.47,3.47,0,0,1-2.14,3.24L12,9.4l-.5.21a4.27,4.27,0,0,0-1.35.79,1.39,1.39,0,0,0-.36,1,1.91,1.91,0,0,1-.13.82.59.59,0,0,1-.33.33,1.35,1.35,0,0,1-.55.1c-.73,0-1.09-.41-1.09-1.23a2.8,2.8,0,0,1,.51-1.69,6.82,6.82,0,0,1,2.16-1.65A7,7,0,0,0,12,7a1.5,1.5,0,0,0,.33-1,1.72,1.72,0,0,0-.75-1.48,3.26,3.26,0,0,0-2-.55,3.63,3.63,0,0,0-2.18.65,1.64,1.64,0,0,0-.82,1.38ZM8.92,16.82a1.66,1.66,0,0,1-1.19-.46,1.59,1.59,0,0,1,0-2.3,1.67,1.67,0,0,1,1.19-.47,1.65,1.65,0,0,1,1.18.47,1.62,1.62,0,0,1,0,2.3A1.64,1.64,0,0,1,8.92,16.82Z"/></svg>