<svg xmlns="http://www.w3.org/2000/svg" viewBox="0 0 19 19"><title>injection</title><style>*{fill:#fff;}</style><polygon points="9.78 9.02 9.27 9.53 8.29 8.54 8.79 8.04 9.78 9.02 9.78 9.02"/><polygon points="10.84 7.96 10.34 8.46 9.36 7.48 9.86 6.98 10.84 7.96 10.84 7.96"/><polygon points="11.9 6.9 11.4 7.4 10.42 6.42 10.92 5.92 11.9 6.9 11.9 6.9"/><polygon points="12.96 5.83 12.46 6.34 11.48 5.36 11.98 4.85 12.96 5.83 12.96 5.83"/><polygon points="14.03 4.77 13.53 5.27 12.54 4.29 13.05 3.79 14.03 4.77 14.03 4.77"/><path d="M15.12.29a.71.71,0,0,0,0,1l.9.9L14.86,3.35,13.28,1.77a.46.46,0,0,0-.65,0l-9.69,9.7a.45.45,0,0,0,0,.64L4.7,13.87,0,18.59l1,.29,4.36-4.36L7.1,16.28a.46.46,0,0,0,.65,0l9.69-9.7a.45.45,0,0,0,0-.64L15.86,4.36,17,3.2l.9.9a.7.7,0,0,0,1,0,.71.71,0,0,0,0-1L16.12.29A.7.7,0,0,0,15.12.29ZM5.76,10.15a.25.25,0,0,1,0,.36l-1.3,1.3,1.06,1.07a.25.25,0,0,1,0,.36.24.24,0,0,1-.11.06l-1.5-1.51,1.71-1.71A.27.27,0,0,1,5.76,10.15ZM16.47,6.26l-5.89,5.89L7.07,8.63,13,2.74Z"/></svg>