<svg xmlns="http://www.w3.org/2000/svg" viewBox="0 0 19 19"><title>Person split</title><style>*{fill:#fff;}</style><rect x="9" y="3.47" width="1" height="1"/><rect x="9" y="5.33" width="1" height="1"/><rect x="9" y="7.2" width="1" height="1"/><rect x="9" y="9.06" width="1" height="1"/><rect x="9" y="10.93" width="1" height="1"/><rect x="9" y="12.8" width="1" height="1"/><rect x="9" y="14.66" width="1" height="1"/><path d="M7.45,8.06a3.31,3.31,0,1,1,0-6.61Z"/><path d="M7.45,17.55H4.8c-1.58,0-2.86-.78-2.86-2.36V11.9A2.7,2.7,0,0,1,4.8,9.24H7.45Z"/><path d="M11.55,8.06a3.31,3.31,0,1,0,0-6.61Z"/><path d="M11.55,17.55H14.1c1.58,0,2.86-.78,2.86-2.36V11.9A2.7,2.7,0,0,0,14.1,9.24H11.55Z"/><rect x="7.45" y="1.45" width="1" height="1"/><rect x="7.45" y="16.55" width="1" height="1"/><rect x="10.55" y="16.55" width="1" height="1"/><rect x="10.55" y="1.45" width="1" height="1"/></svg>