<svg xmlns="http://www.w3.org/2000/svg" viewBox="0 0 60 60"><style>*{ fill:rgba(204,204,204,0.1); }</style><path d="M49.3 41a6 6 0 0 0-1.56-.78 6.37 6.37 0 1 0-11.44.07A6.11 6.11 0 0 0 35 41c-1.44 1-2.21 3.24-2.6 4.9a19.34 19.34 0 0 0-.44 6.06c.23 2.22 1 3.62 2.16 4.15 1.74.77 6 .85 7.75.85 2.9 0 6.81-.22 8.29-.84 1-.44 1.66-1.59 1.89-3.52.36-3.13-.4-9.88-2.75-11.6zM42 41a3.59 3.59 0 1 1 3.59-3.59A3.6 3.6 0 0 1 42 41zm-5.39 2.19a4.88 4.88 0 0 1 1.61-.66 6.52 6.52 0 0 0 7.61 0 5.17 5.17 0 0 1 1.82.68c.83.61 1.95 5 1.67 8.6a4.73 4.73 0 0 1-.32 1.77c-2.08.73-11.7.86-13.67 0 0 0-.4-.36-.56-1.92-.41-3.39.72-7.66 1.85-8.44zM25.3 41a6 6 0 0 0-1.56-.78 6.37 6.37 0 1 0-11.44.07A6.11 6.11 0 0 0 11 41c-1.44 1-2.21 3.24-2.6 4.9a19.34 19.34 0 0 0-.44 6.06c.23 2.22 1 3.62 2.16 4.15 1.74.77 6 .85 7.75.85 2.9 0 6.81-.22 8.29-.84 1-.44 1.66-1.59 1.89-3.52.36-3.13-.4-9.88-2.75-11.6zM18 41a3.59 3.59 0 1 1 3.59-3.59A3.6 3.6 0 0 1 18 41zm-5.39 2.19a4.88 4.88 0 0 1 1.61-.66 6.52 6.52 0 0 0 7.61 0 5.17 5.17 0 0 1 1.82.68c.83.61 1.95 5 1.67 8.6a4.73 4.73 0 0 1-.32 1.77c-2.08.73-11.7.86-13.67 0 0 0-.4-.36-.56-1.92-.41-3.39.72-7.66 1.85-8.44zM49.3 13a6 6 0 0 0-1.56-.78 6.37 6.37 0 1 0-11.44.07A6.11 6.11 0 0 0 35 13c-1.44 1-2.21 3.24-2.6 4.9a19.34 19.34 0 0 0-.44 6.06c.23 2.22 1 3.62 2.16 4.15 1.74.77 6 .85 7.75.85 2.9 0 6.81-.22 8.29-.84 1-.44 1.66-1.59 1.89-3.52.36-3.13-.4-9.88-2.75-11.6zM42 13a3.59 3.59 0 1 1 3.6-3.56A3.6 3.6 0 0 1 42 13zm-5.39 2.19a4.88 4.88 0 0 1 1.61-.66 6.52 6.52 0 0 0 7.61 0 5.17 5.17 0 0 1 1.82.68c.83.61 1.95 5 1.67 8.6a4.73 4.73 0 0 1-.32 1.77c-2.08.73-11.7.86-13.67 0 0 0-.4-.36-.56-1.92-.41-3.39.72-7.66 1.85-8.44zM25.3 13a6 6 0 0 0-1.56-.78 6.37 6.37 0 1 0-11.44.07A6.11 6.11 0 0 0 11 13c-1.44 1-2.21 3.24-2.6 4.9a19.34 19.34 0 0 0-.44 6.06c.23 2.22 1 3.62 2.16 4.15 1.74.77 6 .85 7.75.85 2.9 0 6.81-.22 8.29-.84 1-.44 1.66-1.59 1.89-3.52.36-3.13-.4-9.88-2.75-11.6zM18 13a3.59 3.59 0 1 1 3.6-3.56A3.6 3.6 0 0 1 18 13zm-5.39 2.19a4.88 4.88 0 0 1 1.61-.66 6.52 6.52 0 0 0 7.61 0 5.17 5.17 0 0 1 1.82.68c.83.61 1.95 5 1.67 8.6a4.73 4.73 0 0 1-.32 1.77c-2.08.73-11.7.86-13.67 0 0 0-.4-.36-.56-1.92-.41-3.39.72-7.66 1.85-8.44z"/></svg>