<svg xmlns="http://www.w3.org/2000/svg" width="0" height="0">
	<defs>
		<symbol id="manipulate" viewBox="0 0 57 19"><title>manipulate</title><polygon points="34.35 5.85 33.29 6.91 35.13 8.75 29.25 8.75 29.25 2.87 31.09 4.71 32.15 3.65 28.5 0 24.85 3.65 25.91 4.71 27.75 2.87 27.75 8.75 21.87 8.75 23.71 6.91 22.65 5.85 19 9.5 22.65 13.15 23.71 12.09 21.87 10.25 27.75 10.25 27.75 16.13 25.91 14.29 24.85 15.35 28.5 19 32.15 15.35 31.09 14.29 29.25 16.13 29.25 10.25 35.13 10.25 33.29 12.09 34.35 13.15 38 9.5 34.35 5.85"/>
		</symbol>
		<symbol id="freedraw" viewBox="0 0 19 19"><title>Freedraw</title><path d="M15.12,2.76l1.12,1.12L11.59,8.53,10.47,7.41l4.65-4.65m0-2.76L7.71,7.41l3.88,3.88L19,3.88,15.12,0Z"/><polygon points="7.16 7.96 6.31 12.69 11.04 11.84 7.16 7.96 7.16 7.96"/><path d="M4.25,18.35a4.68,4.68,0,0,1-3-.82A2.4,2.4,0,0,1,.4,15.61a2.91,2.91,0,0,1,1.08-2.26,4.13,4.13,0,0,1,2.88-.76c.75.12,1.06.32,1.11.75S4.91,14,4.33,14,2,14.51,2.17,15.56c.19,1.41,2.07,1,4,.64a9,9,0,0,0,2.46-1.07,8.23,8.23,0,0,1,4.58-1.42,5.15,5.15,0,0,1,4.33,2.42,1,1,0,1,1-1.74.9,3.25,3.25,0,0,0-2.71-1.37,6.5,6.5,0,0,0-3.51,1.18,10.77,10.77,0,0,1-3,1.28A13.18,13.18,0,0,1,4.25,18.35Z"/>
		</symbol>
		<symbol id="circle" viewBox="0 0 19 19"><title>circle</title><path d="M9.5,2A7.5,7.5,0,1,1,2,9.5,7.5,7.5,0,0,1,9.5,2m0-2A9.5,9.5,0,1,0,19,9.5,9.5,9.5,0,0,0,9.5,0Z"/><polygon points="11.22 9.84 11.22 9.16 9.84 9.16 9.84 7.78 9.16 7.78 9.16 9.16 7.78 9.16 7.78 9.84 9.16 9.84 9.16 11.22 9.84 11.22 9.84 9.84 11.22 9.84"/>
		</symbol>
		<symbol id="pointer" viewBox="0 0 19 19"><title>arrow</title><polygon points="15.64 1.65 6.86 10.43 4.69 8.26 3.25 15.75 10.74 14.31 8.57 12.14 17.35 3.36 15.64 1.65"/><polygon points="3.44 17.62 3.44 16.94 2.06 16.94 2.06 15.56 1.38 15.56 1.38 16.94 0 16.94 0 17.62 1.38 17.62 1.38 19 2.06 19 2.06 17.62 3.44 17.62"/>
		</symbol>
	</defs>
</svg>