<svg xmlns="http://www.w3.org/2000/svg" width="0" height="0">
	<defs>
		<symbol id="home-icon" viewBox="0 0 80 40"><title>home</title><path d="M51,35H41.48V27h-3v8H29V21H22L40,3,58,21H51Zm-6.52-3H48V18h2.8L40,7.24,29.2,18H32l0,14h3.52V24h9Z"/>
		</symbol>
		<symbol id="shortcuts-icon" width="80" height="40" viewBox="0 0 80 40"><title>shortcuts2</title><rect x="42" y="8" width="26" height="2"/><rect x="42" y="16" width="26" height="2"/><rect x="42" y="24" width="26" height="2"/><polygon points="34.48 7.64 32.36 5.52 10 27.88 10 12 7 12 7 33 28 33 28 30 12.12 30 34.48 7.64"/><rect x="42" y="32" width="2" height="2"/><rect x="50" y="32" width="2" height="2"/><rect x="58" y="32" width="2" height="2"/><rect x="66" y="32" width="2" height="2"/>
		</symbol>
		<symbol id="logout-icon" viewBox="0 0 80 40"><title>logout</title><polygon points="13.32 19 13.32 22 44.94 22 33.71 33.23 35.83 35.35 50.68 20.5 35.83 5.65 33.71 7.77 44.94 19 13.32 19"/><polygon points="64 34 49 34 49 32 62 32 62 10 49 10 49 8 64 8 64 34"/>
		</symbol>
		<symbol id="hotlist-icon" viewBox="0 0 80 40"><title>hotlist</title><path d="M51.64,25.52c0-.46-.09-.87-.11-1.19-.2-2.6-1-8.32-4.3-9.37l-.07,0a8,8,0,0,0-1.71-1.64,6.1,6.1,0,1,0-11.28-2.13,1.5,1.5,0,0,0-.47.16C29.14,13.88,29.92,25.44,31,27.52c.57,1.08,3.62,5.94,12.1,5.94l.53,0a5.28,5.28,0,0,0,3.88,2l.52,0a3.64,3.64,0,0,0,3-1.29C52.23,32.69,52,29.37,51.64,25.52ZM40.19,7.15a3.09,3.09,0,1,1-3.09,3.09A3.09,3.09,0,0,1,40.19,7.15ZM43,22.41c0,.28,0,.53,0,.73,0,1.09,0,2.44,0,3.73s0,2.6,0,3.57c-6.7,0-9-3.53-9.39-4.32C32.9,24.54,32.85,15.65,35,14l.38,0a6.05,6.05,0,0,0,7.91,1.46c.22.13.47.3.6.4C42.73,17.31,42.79,19.88,43,22.41Zm5.7,9.95a.8.8,0,0,1-.62.14,3.34,3.34,0,0,1-1.81-.55,27.62,27.62,0,0,1-.2-5c0-1.34,0-2.72,0-3.89,0-.22,0-.5-.05-.81-.22-3,0-4.07.22-4.41.91.11,2,2.67,2.35,6.76,0,.34.07.77.12,1.26C48.79,27.22,49.21,31.51,48.67,32.36Z"/><polygon points="22.08 29.55 12.54 20 22.08 10.45 24.2 12.57 16.78 20 24.2 27.43 22.08 29.55"/><polygon points="59.39 10.45 68.94 20 59.39 29.55 57.27 27.43 64.7 20 57.27 12.57 59.39 10.45"/>
		</symbol>
		<symbol id="hotlist-vc-icon" viewBox="0 0 80 40"><title>VC hotlist</title><path d="M51.64,25.52c0-.46-.09-.87-.11-1.19-.2-2.6-1-8.32-4.3-9.37l-.07,0a8,8,0,0,0-1.71-1.64,6.1,6.1,0,1,0-11.28-2.13,1.5,1.5,0,0,0-.47.16C29.14,13.88,29.92,25.44,31,27.52c.57,1.08,3.62,5.94,12.1,5.94l.53,0a5.28,5.28,0,0,0,3.88,2l.52,0a3.64,3.64,0,0,0,3-1.29C52.23,32.69,52,29.37,51.64,25.52ZM40.19,7.15a3.09,3.09,0,1,1-3.09,3.09A3.09,3.09,0,0,1,40.19,7.15ZM43,22.41c0,.28,0,.53,0,.73,0,1.09,0,2.44,0,3.73s0,2.6,0,3.57c-6.7,0-9-3.53-9.39-4.32C32.9,24.54,32.85,15.65,35,14l.38,0a6.05,6.05,0,0,0,7.91,1.46c.22.13.47.3.6.4C42.73,17.31,42.79,19.88,43,22.41Zm5.7,9.95a.8.8,0,0,1-.62.14,3.34,3.34,0,0,1-1.81-.55,27.62,27.62,0,0,1-.2-5c0-1.34,0-2.72,0-3.89,0-.22,0-.5-.05-.81-.22-3,0-4.07.22-4.41.91.11,2,2.67,2.35,6.76,0,.34.07.77.12,1.26C48.79,27.22,49.21,31.51,48.67,32.36Z"/><polygon points="60.34 5 60.34 8 69.33 8 69.33 32 60.34 32 60.34 35 72.33 35 72.33 5 60.34 5"/><polygon points="21.66 35 21.66 32 12.66 32 12.66 8 21.66 8 21.66 5 9.66 5 9.66 35 21.66 35"/>
		</symbol>
		<symbol id="quicklook-icon" viewBox="0 0 30 30"><title>Quicklook</title><path d="M15,4.83c8.28,0,15,4.55,15,10.17A15,15,0,0,0,0,15C0,9.39,6.72,4.83,15,4.83Z"/><path d="M15,25.17C6.72,25.17,0,20.61,0,15a15,15,0,1,0,30,0C30,20.61,23.28,25.17,15,25.17Z"/><circle cx="15" cy="15" r="6"/>
		</symbol>
		<symbol id="warning-icon" viewBox="0 0 30 30"><title>Warning</title><path d="M15,13.66l4.43,7.84H10.57L15,13.66M15,3.5,2,26.5H28L15,3.5Z"/>
		</symbol>
		<symbol id="patient-icon" viewBox="0 0 60 60"><title>patient icon</title><path d="M52.14,41.32l0-.18c-.08-.85-.16-1.6-.2-2.2C51.56,34,50,22.52,43.51,21.12a13.79,13.79,0,0,0-4.15-3.72,11,11,0,0,0,2-6.29,11.1,11.1,0,0,0-22.2,0,10.91,10.91,0,0,0,.27,2.42,5,5,0,0,0-2.14-.64c-6.87-.36-9,10.75-9.56,15.54-.07.56-.17,1.26-.29,2.06-.91,6.26-1.58,12.08.24,14.65,1.09,1.54,3,2.34,5.47,2.24a10.89,10.89,0,0,0,1.45-.19C17.32,50.58,23.6,56,36,56c.53,0,1.19,0,1.8-.05l.12.25c1.14,2.17,4.43,3.55,7.1,3.79.32,0,.64,0,.94,0a6.35,6.35,0,0,0,5.16-2.19C53.29,55.06,52.84,48.44,52.14,41.32ZM36.85,35.06c0,.55.08,1,.09,1.43.1,2.18.07,4.83,0,7.41,0,3.21,0,5.86.08,7.91-15.08.32-20-8-20.48-9-1.54-2.91-2-21.64,3.1-25.11.45-.09.94-.17,1.47-.23a11.07,11.07,0,0,0,15.16,2.87A12.83,12.83,0,0,1,39,22.16l-.3.3C36.35,25,36.5,30.07,36.85,35.06ZM30.23,4.11a7,7,0,1,1-7,7A7,7,0,0,1,30.23,4.11Zm10.82,32.2c0-.43-.06-1-.1-1.58-.17-2.4-.58-8,.77-9.48a.5.5,0,0,1,.44-.18c2.7,0,5,5.83,5.65,14.17.05.67.13,1.51.23,2.46.29,2.94,1.16,11.88-.15,13.55a3,3,0,0,1-2.5.59,5.85,5.85,0,0,1-3.83-1.61c-.55-1-.49-6.83-.46-10.31C41.13,41.33,41.16,38.62,41.06,36.31ZM12.43,43.26A1.9,1.9,0,0,1,11,42.75c-1-1.44.1-9.13.47-11.68l0-.13A46.78,46.78,0,0,0,12.43,43.26Z"/>
		</symbol>
		<symbol id="trials-icon" viewBox="0 0 60 60"><title>trial icon</title><circle cx="7" cy="7" r="7"/><circle cx="53.1" cy="7" r="7"/><circle cx="30" cy="7" r="7"/><circle cx="7" cy="41" r="7"/><circle cx="53.1" cy="41" r="7"/><circle cx="7" cy="24" r="7"/><circle cx="53.1" cy="24" r="7"/><circle cx="30" cy="24" r="7"/><path d="M36.88,52a10.62,10.62,0,1,0-13.76,0c-6.45,2.09-10.77,7.11-10.77,13.27a2.19,2.19,0,0,0,4.39,0c0-5.67,5.7-9.94,13.27-9.94s13.27,4.27,13.27,9.94a2.19,2.19,0,0,0,4.39,0C47.66,59.12,43.33,54.1,36.88,52ZM30,37.7a6.24,6.24,0,1,1-6.24,6.24A6.24,6.24,0,0,1,30,37.7Z"/>
		</symbol>
		<symbol id="charts-icon" viewBox="0 0 19 19"><title>charts icon</title><rect y="17.5" width="19" height="1.5"/><polygon points="0.65 19.37 -0.65 18.63 6.84 5.39 11 9.27 18.4 -0.45 19.6 0.45 11.19 11.5 7.21 7.78 0.65 19.37"/><circle cx="17.28" cy="5.08" r="0.75"/><circle cx="14.17" cy="7.85" r="0.75"/><circle cx="17.28" cy="7.85" r="0.75"/><circle cx="7.94" cy="10.62" r="0.75"/><circle cx="14.17" cy="10.62" r="0.75"/><circle cx="17.28" cy="10.62" r="0.75"/><circle cx="4.83" cy="13.38" r="0.75"/><circle cx="7.94" cy="13.38" r="0.75"/><circle cx="11.06" cy="13.38" r="0.75"/><circle cx="14.17" cy="13.38" r="0.75"/><circle cx="17.28" cy="13.38" r="0.75"/><circle cx="4.83" cy="16.15" r="0.75"/><circle cx="7.94" cy="16.15" r="0.75"/><circle cx="11.06" cy="16.15" r="0.75"/><circle cx="14.17" cy="16.15" r="0.75"/><circle cx="17.28" cy="16.15" r="0.75"/>
		</symbol>
		<symbol id="clinic-icon" viewBox="0 0 80 40"><title>clinic icon</title><path d="M53.34,27.23h0a3.7,3.7,0,0,0-.66-.38,4.64,4.64,0,1,0-8.74.07,4,4,0,0,0-.49.3,6.07,6.07,0,0,0-1.88,3.48,13.12,13.12,0,0,0-.3,4.1c.17,1.63.74,2.68,1.7,3.1a17,17,0,0,0,5.23.6c.7,0,4.25,0,5.58-.59.86-.36,1.36-1.24,1.53-2.69C55.56,33.13,55.1,28.54,53.34,27.23Zm-5-.06a1.83,1.83,0,1,1,1.83-1.83A1.84,1.84,0,0,1,48.3,27.17Zm2.59,2a2.38,2.38,0,0,1,.77.3,10.13,10.13,0,0,1,.89,5.15,4.1,4.1,0,0,1-.12.77c-1.57.37-7,.43-8.17,0a2.89,2.89,0,0,1-.21-.91c-.23-2.17.54-4.66,1-5a2.22,2.22,0,0,1,.66-.29A4.74,4.74,0,0,0,50.89,29.18Z"/><path d="M36.75,27.23h0a3.7,3.7,0,0,0-.66-.38,4.64,4.64,0,1,0-8.74.07,4,4,0,0,0-.49.3A6.07,6.07,0,0,0,25,30.69a13.12,13.12,0,0,0-.3,4.1c.17,1.63.74,2.68,1.7,3.1a17,17,0,0,0,5.23.6c.7,0,4.25,0,5.58-.59.86-.36,1.36-1.24,1.53-2.69C39,33.13,38.51,28.54,36.75,27.23Zm-5-.06a1.83,1.83,0,1,1,1.83-1.83A1.84,1.84,0,0,1,31.71,27.17Zm2.59,2a2.38,2.38,0,0,1,.77.3A10.13,10.13,0,0,1,36,34.63a4.1,4.1,0,0,1-.12.77c-1.56.37-7,.43-8.17,0a2.89,2.89,0,0,1-.21-.91c-.23-2.17.54-4.66,1-5a2.22,2.22,0,0,1,.66-.29A4.74,4.74,0,0,0,34.3,29.18Z"/><path d="M43,18.71a17,17,0,0,0,5.23.6c.7,0,4.25,0,5.58-.59.86-.36,1.36-1.24,1.53-2.69.25-2.09-.21-6.68-2-8h0a3.73,3.73,0,0,0-.66-.38,4.64,4.64,0,1,0-8.74.07,4,4,0,0,0-.49.3,6.07,6.07,0,0,0-1.88,3.48,13.12,13.12,0,0,0-.3,4.1C41.44,17.25,42,18.29,43,18.71ZM48.3,8a1.83,1.83,0,1,1,1.83-1.83A1.84,1.84,0,0,1,48.3,8Zm2.59,2a2.38,2.38,0,0,1,.77.3,10.13,10.13,0,0,1,.89,5.15,4.18,4.18,0,0,1-.12.77c-1.56.37-7,.43-8.17,0a2.89,2.89,0,0,1-.21-.91c-.23-2.17.54-4.66,1-5a2.22,2.22,0,0,1,.66-.29A4.74,4.74,0,0,0,50.89,10Z"/><path d="M36.75,8h0a3.73,3.73,0,0,0-.66-.38,4.64,4.64,0,1,0-8.74.07,4,4,0,0,0-.49.3A6.07,6.07,0,0,0,25,11.51a13.12,13.12,0,0,0-.3,4.1c.17,1.64.74,2.68,1.7,3.1a17,17,0,0,0,5.23.6c.7,0,4.25,0,5.58-.59.86-.36,1.36-1.24,1.53-2.69C39,13.94,38.51,9.35,36.75,8Zm-5-.06a1.83,1.83,0,1,1,1.83-1.83A1.84,1.84,0,0,1,31.71,8Zm2.59,2a2.38,2.38,0,0,1,.77.3A10.13,10.13,0,0,1,36,15.44a4.18,4.18,0,0,1-.12.77c-1.56.37-7,.43-8.17,0a2.89,2.89,0,0,1-.21-.91c-.23-2.17.54-4.66,1-5a2.22,2.22,0,0,1,.66-.29A4.74,4.74,0,0,0,34.3,10Z"/>
		</symbol>
		<symbol id="clinic-change-icon" viewBox="0 0 80 40"><title>clinic change icon</title><polygon points="11.34 29.55 1.8 20 11.34 10.45 13.46 12.57 6.04 20 13.46 27.43 11.34 29.55"/><polygon points="68.66 10.45 78.2 20 68.66 29.55 66.53 27.43 73.96 20 66.53 12.57 68.66 10.45"/><path d="M54.31,27.75h0a3.8,3.8,0,0,0-.7-.4,5.08,5.08,0,0,0,.28-1.63,5,5,0,0,0-10,0,4.92,4.92,0,0,0,.31,1.7,4.37,4.37,0,0,0-.53.32,6.54,6.54,0,0,0-2,3.73,13.94,13.94,0,0,0-.32,4.41c.18,1.75.8,2.87,1.82,3.32,1.26.56,4.06.64,5.62.64.75,0,4.56,0,6-.63.92-.39,1.46-1.33,1.64-2.88C56.69,34.08,56.2,29.16,54.31,27.75Zm-5.41-.06a2,2,0,1,1,2-2A2,2,0,0,1,48.9,27.69Zm2.78,2.16a2.65,2.65,0,0,1,.83.32c.37.34,1.14,3.06,1,5.52a3.73,3.73,0,0,1-.13.83c-1.67.39-7.51.46-8.76,0a3.1,3.1,0,0,1-.22-1c-.24-2.33.58-5,1.11-5.38a2.5,2.5,0,0,1,.71-.31A5.07,5.07,0,0,0,51.68,29.85Z"/><path d="M36.51,27.75h0a4.28,4.28,0,0,0-.71-.4,4.82,4.82,0,0,0,.28-1.63,5,5,0,1,0-9.95,0,4.91,4.91,0,0,0,.3,1.7,5.31,5.31,0,0,0-.53.32,6.6,6.6,0,0,0-2,3.73,14.55,14.55,0,0,0-.32,4.41c.19,1.75.8,2.87,1.83,3.32,1.26.56,4.06.64,5.61.64.75,0,4.57,0,6-.63.92-.39,1.45-1.33,1.64-2.88C38.9,34.08,38.41,29.16,36.51,27.75Zm-5.41-.06a2,2,0,1,1,2-2A2,2,0,0,1,31.1,27.69Zm2.78,2.16a2.41,2.41,0,0,1,.83.32c.38.34,1.15,3.06,1,5.52a4.46,4.46,0,0,1-.13.83c-1.68.39-7.51.46-8.76,0a3.1,3.1,0,0,1-.22-1c-.25-2.33.58-5,1.1-5.38a2.83,2.83,0,0,1,.71-.31A5.07,5.07,0,0,0,33.88,29.85Z"/><path d="M43.18,18.62c1.26.56,4.06.64,5.62.64.75,0,4.56,0,6-.63.92-.39,1.46-1.33,1.64-2.88.27-2.25-.22-7.17-2.11-8.58h0a3.8,3.8,0,0,0-.7-.41,5,5,0,1,0-9.37.08,4.37,4.37,0,0,0-.53.32,6.48,6.48,0,0,0-2,3.73,13.9,13.9,0,0,0-.32,4.4C41.54,17.05,42.16,18.17,43.18,18.62ZM48.9,7.1a2,2,0,1,1,2-2A2,2,0,0,1,48.9,7.1Zm2.78,2.16a2.81,2.81,0,0,1,.83.33c.37.34,1.14,3.06,1,5.52a3.85,3.85,0,0,1-.13.83c-1.67.39-7.51.46-8.76,0a3.19,3.19,0,0,1-.22-1c-.24-2.33.58-5,1.11-5.38a2.23,2.23,0,0,1,.71-.31A5.09,5.09,0,0,0,51.68,9.26Z"/><path d="M36.51,7.17h0a4.28,4.28,0,0,0-.71-.41,4.72,4.72,0,0,0,.28-1.62,5,5,0,1,0-9.65,1.7,5.31,5.31,0,0,0-.53.32,6.53,6.53,0,0,0-2,3.73,14.51,14.51,0,0,0-.32,4.4c.19,1.76.8,2.88,1.83,3.33,1.26.56,4.06.64,5.61.64.75,0,4.57,0,6-.63.92-.39,1.45-1.33,1.64-2.88C38.9,13.5,38.41,8.58,36.51,7.17ZM31.1,7.1a2,2,0,1,1,2-2A2,2,0,0,1,31.1,7.1Zm2.78,2.16a2.53,2.53,0,0,1,.83.33c.38.34,1.15,3.06,1,5.52a4.62,4.62,0,0,1-.13.83c-1.68.39-7.51.46-8.76,0a3.19,3.19,0,0,1-.22-1c-.25-2.33.58-5,1.1-5.38a2.35,2.35,0,0,1,.71-.31A5.09,5.09,0,0,0,33.88,9.26Z"/>
		</symbol>
		<symbol id="lightning-viewer-icon" viewBox="0 0 30 30"><title>lightning viewer</title><polygon points="23.61 11.5 15 11.5 15 0 6.38 18.5 15 18.5 15 30 23.61 11.5"/>
		</symbol>	
		<symbol id="tasks-icon" viewBox="0 0 30 30"><title>tasks</title><path d="M28.27,1.68l.61.88a47.83,47.83,0,0,0-8.34,8.69,59.75,59.75,0,0,0-7,11l-1.3.88A22.08,22.08,0,0,0,10,24.76a27.46,27.46,0,0,0-1-2.7l-.49-1.14a17.54,17.54,0,0,0-2-3.63,4.39,4.39,0,0,0-2-1.56q1.89-2,3.47-2,1.35,0,3,3.66l.54,1.23a50.9,50.9,0,0,1,7.61-9.71A42.6,42.6,0,0,1,28.27,1.68Z"/><path d="M19.42,14.5A8.76,8.76,0,1,1,3.25,16.67l-.09,0,.13-.14a8.72,8.72,0,0,1,12.83-5.35c.45-.5.91-1,1.39-1.49a10.74,10.74,0,1,0,3.19,3.13C20.26,13.36,19.83,13.94,19.42,14.5Z"/>
		</symbol>
		<symbol id="info-icon" viewBox="0 0 19 19"><title>info</title><path d="M9.5,0A9.5,9.5,0,1,0,19,9.5,9.5,9.5,0,0,0,9.5,0Zm2.12,16.69v-7L6.05,12.18l0,.64.52-.16a1.14,1.14,0,0,1,.83,0,.78.78,0,0,1,.44.49A6.29,6.29,0,0,1,8,14.79l0,2a7.51,7.51,0,1,1,3.68-.15Z"/><circle cx="9.5" cy="6.59" r="2.12"/>
		</symbol>
		<symbol id="local-edit-icon" viewBox="0 0 30 30"><title>local patient edit</title><path d="M20.56,17.93,12.07,9.44,21.51,0H0V30H30V8.49ZM8.28,21.72,10,11.47,18.53,20Z"/>
		</symbol>
	</defs>
</svg>