<svg xmlns="http://www.w3.org/2000/svg" width="0" height="0">
	<defs>
		<symbol id="openers-logo" viewBox="0 0 279 61.41"><title>OpenERS</title><polygon class="a" points="18.01 20.51 27.51 30.05 0 30.05 0 20.51 18.01 20.51"/><path class="a" d="M14,13.2a16.31,16.31,0,1,1,0,24.16L7.65,43.71a25.29,25.29,0,1,0,0-36.85Z"/><path class="a" d="M54.65,61.41v-47H63L63.4,17a13.33,13.33,0,0,1,2.48-1.78,11.66,11.66,0,0,1,5.86-1.61,13,13,0,0,1,8.75,3,14.83,14.83,0,0,1,4.76,7.1,26.85,26.85,0,0,1,1.19,7.5,20.35,20.35,0,0,1-1.06,6.5,16.07,16.07,0,0,1-3.26,5.67,16.44,16.44,0,0,1-5.57,4,19.28,19.28,0,0,1-8,1.54,12.22,12.22,0,0,1-4.72-1V61.41ZM68,41.38a9.18,9.18,0,0,0,5.75-1.76,8.44,8.44,0,0,0,3-4.07,13.72,13.72,0,0,0,.75-4.19,14.22,14.22,0,0,0-1.07-5.62A7.93,7.93,0,0,0,73.61,22a6.78,6.78,0,0,0-3.75-1.17,6.47,6.47,0,0,0-2.67.6A9.84,9.84,0,0,0,65,22.78a6.12,6.12,0,0,0-1.25,1.3V40.42A10.58,10.58,0,0,0,68,41.38Z"/><path class="a" d="M106.55,49a19.11,19.11,0,0,1-6.33-1.06,14.72,14.72,0,0,1-5.3-3.25,15.55,15.55,0,0,1-3.62-5.52A21,21,0,0,1,90,31.29,18.86,18.86,0,0,1,92.68,20.9a14.22,14.22,0,0,1,6.52-5.78,19,19,0,0,1,7.14-1.54,16.17,16.17,0,0,1,6.41,1.23,13.14,13.14,0,0,1,5,3.73A18,18,0,0,1,121,24.76a30.18,30.18,0,0,1,1.19,8.72h-23a10.58,10.58,0,0,0,.87,3.64,7.81,7.81,0,0,0,1.75,2.5,6.55,6.55,0,0,0,2.37,1.43,8.15,8.15,0,0,0,2.7.46,11.52,11.52,0,0,0,3.49-.47,7.15,7.15,0,0,0,2.7-1.59,18.06,18.06,0,0,0,2.29-2.62L122.11,41A18.1,18.1,0,0,1,117.35,46a14.34,14.34,0,0,1-5.42,2.36A27.15,27.15,0,0,1,106.55,49ZM99.33,27.26h13.51a7.62,7.62,0,0,0-1.37-4,6.25,6.25,0,0,0-2.6-2.17,6.67,6.67,0,0,0-2.53-.6,6.29,6.29,0,0,0-3.5,1.08,7.4,7.4,0,0,0-2.51,2.6A7.7,7.7,0,0,0,99.33,27.26Z"/><path class="a" d="M127.41,48.18V14.44h8.34l.41,2.66A15.17,15.17,0,0,1,141,14.49a17,17,0,0,1,5.45-.91,13.33,13.33,0,0,1,7.4,1.92A10.17,10.17,0,0,1,158,20.85a22.4,22.4,0,0,1,1.19,7.36v20H150V28.93a9.28,9.28,0,0,0-1.69-6,5.69,5.69,0,0,0-4.7-2.11,7.46,7.46,0,0,0-2.86.58,13,13,0,0,0-2.48,1.37,14.76,14.76,0,0,0-1.74,1.44V48.18Z"/><path class="a" d="M170.62,48.18V1.48h27.25V6.3H176.23v15h15.45v4.82H176.16V43.36h23.38v4.82Z"/><path class="a" d="M210,48.18V1.48h15a22.58,22.58,0,0,1,6.79.92A13.42,13.42,0,0,1,236.5,5a10.3,10.3,0,0,1,2.8,4,14.15,14.15,0,0,1,.92,5.23,14.43,14.43,0,0,1-.89,5.32,11.39,11.39,0,0,1-2.46,3.88A12.38,12.38,0,0,1,233.18,26a17.8,17.8,0,0,1-4.58,1.38l12.72,20.79H235L222.34,27.74h-6.77V48.18Zm5.6-25.26h9q4.78,0,7.26-2.21c1.66-1.47,2.48-3.63,2.48-6.48A7.3,7.3,0,0,0,232,8.3q-2.4-2-6.87-2h-9.51Z"/><path class="a" d="M263.65,49.17A21.46,21.46,0,0,1,256.52,48a18.14,18.14,0,0,1-5.59-2.94,15.66,15.66,0,0,1-3.39-3.6L252,38.16a11.81,11.81,0,0,0,2.36,2.53,14.32,14.32,0,0,0,3,1.83,16.57,16.57,0,0,0,3.31,1.13A15.65,15.65,0,0,0,264,44a11.52,11.52,0,0,0,5-1,6.41,6.41,0,0,0,3.1-2.92,9.06,9.06,0,0,0,.94-4,6.69,6.69,0,0,0-1.59-4.5,14.09,14.09,0,0,0-4.4-3.28c-1.86-.95-3.77-1.81-5.71-2.58q-2.18-.88-4.37-2a18.29,18.29,0,0,1-4-2.61,12.51,12.51,0,0,1-2.86-3.61,10.34,10.34,0,0,1-1.09-4.91,10.45,10.45,0,0,1,2.55-7.14,12.33,12.33,0,0,1,5.93-3.88,21.23,21.23,0,0,1,10.63-.55,18.22,18.22,0,0,1,4.1,1.33,17.58,17.58,0,0,1,3.63,2.28,14.55,14.55,0,0,1,2.94,3.25l-4.27,3.38A13.9,13.9,0,0,0,271.22,8a13.58,13.58,0,0,0-3.9-1.9A12.82,12.82,0,0,0,264,5.61a10.63,10.63,0,0,0-4.73,1.1,7.55,7.55,0,0,0-3.2,2.6,5.53,5.53,0,0,0-1,3,5.83,5.83,0,0,0,.55,2.58,7.08,7.08,0,0,0,1.42,2,10,10,0,0,0,2,1.51,22.2,22.2,0,0,0,2.28,1.16,37.09,37.09,0,0,0,3.48,1.4,48.71,48.71,0,0,1,9.05,4.67,11.22,11.22,0,0,1,4.12,4.79A14.74,14.74,0,0,1,279,35.94a13.33,13.33,0,0,1-1.23,5.93A11.44,11.44,0,0,1,274.45,46a14.41,14.41,0,0,1-4.87,2.4A22,22,0,0,1,263.65,49.17Z"/>
		</symbol>
	</defs>
</svg>