<svg xmlns="http://www.w3.org/2000/svg" viewBox="0 0 19 19"><title>Query - reply</title><style>*{fill:#fff;}</style><path d="M2.3,5.16a1.63,1.63,0,0,1,.42-.31,1.13,1.13,0,0,1,.56-.13c.9,0,1.35.43,1.35,1.28A1.58,1.58,0,0,1,4,7.29a2.23,2.23,0,0,1-1.5.52A2.52,2.52,0,0,1,.62,7.08,2.59,2.59,0,0,1-.1,5.18,4,4,0,0,1,1.61,1.91,6.93,6.93,0,0,1,5.89.65,6.49,6.49,0,0,1,10,1.87a3.85,3.85,0,0,1,1.65,3.24A4.09,4.09,0,0,1,9.13,8.93l-.46.2-.59.26a4.93,4.93,0,0,0-1.59.92,1.65,1.65,0,0,0-.42,1.18,2.16,2.16,0,0,1-.16,1,.68.68,0,0,1-.39.39,1.75,1.75,0,0,1-.64.11C4,13,3.6,12.47,3.6,11.51a3.28,3.28,0,0,1,.6-2A8.16,8.16,0,0,1,6.73,7.58,7.69,7.69,0,0,0,8.65,6.25,1.73,1.73,0,0,0,9,5a2,2,0,0,0-.88-1.73,3.84,3.84,0,0,0-2.34-.64,4.28,4.28,0,0,0-2.56.75A1.93,1.93,0,0,0,2.3,5ZM5.09,17.85a2,2,0,0,1-1.4-.54,1.88,1.88,0,0,1,0-2.7,2,2,0,0,1,1.4-.55,1.87,1.87,0,0,1,1.38.55,1.88,1.88,0,0,1,0,2.7A1.9,1.9,0,0,1,5.09,17.85Z"/><path d="M18.87,12.25A3,3,0,0,1,16,14.49H12.89l1.85,1.84-1.32,1.32L9.27,13.49l4.15-4.16,1.32,1.32-2,2H16a1.17,1.17,0,0,0,1.17-1.17V9.36a5.35,5.35,0,1,0,1.87,4A5.48,5.48,0,0,0,18.87,12.25Z"/></svg>