<svg xmlns="http://www.w3.org/2000/svg" viewBox="0 0 19 19"><title>trash</title><style>*{fill:rgb(0,255,255)}</style><path d="M17.49,3.55a.5.5,0,0,0-.35-.14H13.71L13,1.59a1.79,1.79,0,0,0-.66-.77,1.75,1.75,0,0,0-1-.32H7.68a1.78,1.78,0,0,0-1,.32,1.7,1.7,0,0,0-.65.77L5.29,3.41H1.86a.5.5,0,0,0-.35.14.48.48,0,0,0-.13.35v.73A.49.49,0,0,0,1.51,5a.49.49,0,0,0,.35.13h1v10.7a2.62,2.62,0,0,0,.56,1.68,1.72,1.72,0,0,0,1.38.72h9.46a1.7,1.7,0,0,0,1.38-.74,2.72,2.72,0,0,0,.56-1.71V5.11h1a.45.45,0,0,0,.48-.48V3.9A.48.48,0,0,0,17.49,3.55ZM7.14,3.41l.48-1.14a.12.12,0,0,1,.09-.06h3.57a.16.16,0,0,1,.11.07l.47,1.14ZM4.54,15.76V5.11h9.93V15.76a1.42,1.42,0,0,1-.07.42.83.83,0,0,1-.15.27.23.23,0,0,1-.05.05H4.8a.23.23,0,0,1,0-.05.88.88,0,0,1-.14-.27A1.16,1.16,0,0,1,4.54,15.76Z"/><path d="M7.42,7.35v6.24a.33.33,0,0,1-.1.25.36.36,0,0,1-.25.1H6.38a.36.36,0,0,1-.25-.1.33.33,0,0,1-.1-.25V7.35a.3.3,0,0,1,.1-.25A.32.32,0,0,1,6.38,7h.69a.32.32,0,0,1,.25.1A.3.3,0,0,1,7.42,7.35Z"/><path d="M10.19,7.35v6.24a.37.37,0,0,1-.09.25.37.37,0,0,1-.25.1h-.7a.37.37,0,0,1-.25-.1.37.37,0,0,1-.09-.25V7.35A.33.33,0,0,1,9.15,7h.7a.33.33,0,0,1,.34.35Z"/><path d="M13,7.35v6.24a.33.33,0,0,1-.1.25.36.36,0,0,1-.25.1h-.69a.36.36,0,0,1-.25-.1.33.33,0,0,1-.1-.25V7.35a.3.3,0,0,1,.1-.25.32.32,0,0,1,.25-.1h.69a.32.32,0,0,1,.25.1A.3.3,0,0,1,13,7.35Z"/></svg>