<svg xmlns="http://www.w3.org/2000/svg" viewBox="0 0 19 19"><style>*{ fill:rgba(255,255,255,0.8);}</style><path d="M6.22 13.13C7.1 8.37 9.2 5.92 9.2 3a2.85 2.85 0 0 0-3-2.68A2.84 2.84 0 0 0 3.24 3c0 2.92 2.09 5.37 2.98 10.13zM6.21 13.38a2.46 2.46 0 0 1 1.79.76 2.55 2.55 0 0 1 0 3.63 2.57 2.57 0 0 1-3.65 0 2.58 2.58 0 0 1 1.82-4.39zM12.78 13.13c.89-4.76 3-7.21 3-10.13a2.84 2.84 0 0 0-3-2.68A2.85 2.85 0 0 0 9.8 3c0 2.92 2.1 5.37 2.98 10.13zM12.77 13.38a2.57 2.57 0 0 1 1.84 4.39 2.54 2.54 0 0 1-1.84.76A2.57 2.57 0 0 1 11 14.14a2.43 2.43 0 0 1 1.77-.76z"/></svg>